<svg width="191.3" height="93.114" viewBox="0 0 191.3 93.114" xmlns="http://www.w3.org/2000/svg"><g id="svgGroup" stroke-linecap="round" fill-rule="evenodd" font-size="9pt" stroke="#000" stroke-width="0.25mm" fill="black" style="stroke:#000;stroke-width:0.25mm;fill:black"><path d="M 88.4 45.3 L 24.1 45.3 L 24.1 20.9 L 67.2 20.9 C 66.65 25.145 65.976 27.845 65.227 29.292 A 3.663 3.663 0 0 1 64.6 30.2 A 2.7 2.7 0 0 1 63.844 30.925 C 63.253 31.293 62.531 31.38 61.561 31.397 A 27.25 27.25 0 0 1 61.1 31.4 A 89.431 89.431 0 0 1 59.688 31.387 C 58.284 31.365 56.355 31.308 54.194 31.185 A 117.415 117.415 0 0 1 49.2 30.8 C 50.5 33.5 51.5 37.7 51.6 40.6 A 141.23 141.23 0 0 0 56.587 40.854 C 60.466 40.983 63.908 40.941 66.1 40.8 A 19.018 19.018 0 0 0 70.382 40.142 A 9.111 9.111 0 0 0 74.8 37.4 C 77.3 34.7 78.9 28.6 80 15.5 A 19.936 19.936 0 0 0 80.048 15.043 C 80.216 13.257 80.3 10.4 80.3 10.4 L 44.3 10.4 A 122.617 122.617 0 0 0 46.831 5.39 A 155.032 155.032 0 0 0 48.8 1.1 L 35.7 0 A 47.138 47.138 0 0 1 35.045 2.851 C 34.408 5.308 33.554 7.981 32.7 10.4 L 12.7 10.4 L 12.7 55.8 L 76.6 55.8 C 76.181 69.458 75.551 76.797 74.241 79.876 A 3.919 3.919 0 0 1 73.4 81.2 C 72.3 82.2 71.3 82.4 69.4 82.4 A 138.611 138.611 0 0 1 67.62 82.387 C 65.884 82.365 63.567 82.308 60.979 82.185 A 168.557 168.557 0 0 1 55 81.8 A 24.388 24.388 0 0 1 56.566 84.661 C 57.826 87.354 58.755 90.441 58.9 92.9 A 178.278 178.278 0 0 0 59.543 92.931 C 65.332 93.199 71.121 93.186 74.4 92.8 A 24.676 24.676 0 0 0 77.908 92.14 C 80.094 91.527 81.888 90.483 83.5 88.4 A 11.134 11.134 0 0 0 85.448 84.399 C 87.084 78.953 87.798 68.824 88.4 50.1 L 88.4 45.3 Z M 164.7 75.7 L 164.7 20.5 L 186.8 20.5 L 186.8 8.6 L 131.4 8.6 L 131.4 20.5 L 151.7 20.5 L 151.7 75.7 L 126 75.7 L 126 87.6 L 191.3 87.6 L 191.3 75.7 L 164.7 75.7 Z M 69 63.9 L 0 63.9 L 0 74.4 L 69 74.4 L 69 63.9 Z M 101.9 84.4 L 111.9 92.5 A 439.834 439.834 0 0 0 116.45 84.892 C 120.87 77.334 125.289 69.291 129.1 61.789 A 352.127 352.127 0 0 0 129.5 61 L 120.7 53 A 253.428 253.428 0 0 1 117.846 58.397 C 112.988 67.328 107.495 76.258 103.173 82.569 A 151.72 151.72 0 0 1 101.9 84.4 Z M 104.9 28.8 L 98.4 37.6 A 315.677 315.677 0 0 1 101.635 39.296 C 107.18 42.242 113.677 45.908 117 48.4 L 123.6 38.5 C 119.2 35.7 110.4 31.4 104.9 28.8 Z M 111.2 1.7 L 104.3 10.1 C 109.399 13.231 116.418 17.562 120.634 20.731 A 41.218 41.218 0 0 1 122 21.8 L 129.2 12.4 A 51.019 51.019 0 0 0 127.526 11.232 C 123.353 8.431 116.833 4.704 112.052 2.152 A 189.974 189.974 0 0 0 111.2 1.7 Z" vector-effect="non-scaling-stroke"/></g></svg>