<svg width="294.2" height="92.4" viewBox="0 0 294.2 92.4" xmlns="http://www.w3.org/2000/svg"><g id="svgGroup" stroke-linecap="round" fill-rule="evenodd" font-size="9pt" stroke="#000" stroke-width="0.25mm" fill="black" style="stroke:#000;stroke-width:0.25mm;fill:black"><path d="M 32 39.8 L 46.5 39.8 L 46.5 28.8 L 32 28.8 L 32 13.5 C 37.3 12.3 42.5 10.9 46.9 9.3 L 39.2 0 A 89.239 89.239 0 0 1 31.725 2.53 C 25.682 4.313 18.567 5.914 11.451 7.181 A 235.185 235.185 0 0 1 2.5 8.6 A 26.493 26.493 0 0 1 2.794 9.207 C 3.97 11.719 5.167 15.198 5.659 17.684 A 18.353 18.353 0 0 1 5.7 17.9 A 450.452 450.452 0 0 0 16.345 16.381 A 450.361 450.361 0 0 0 20 15.8 L 20 28.8 L 2.2 28.8 L 2.2 39.8 L 17.1 39.8 C 14.128 48.182 9.704 56.855 4.758 63.694 A 57.877 57.877 0 0 1 0 69.5 A 98.306 98.306 0 0 1 0.924 70.912 C 2.437 73.268 4.188 76.225 5.305 78.847 A 20.299 20.299 0 0 1 6 80.7 A 58.645 58.645 0 0 0 12.149 72.311 C 14.999 67.689 17.623 62.386 20 56.8 L 20 92.4 L 32 92.4 L 32 55.5 A 202.303 202.303 0 0 1 33.551 57.741 C 36.278 61.739 38.8 65.737 40.4 68.6 L 47.2 58.7 C 45 56 36 45.5 32 41.5 L 32 39.8 Z M 294.2 4.9 L 229.2 4.9 L 229.2 10.7 A 66.339 66.339 0 0 0 226.993 9.283 C 222.447 6.475 215.752 2.876 211 0.5 L 204.2 8.9 C 210 12.4 218.4 17.4 222.4 20.3 L 229.2 11.2 L 229.2 16.5 L 275 16.5 L 275 77.2 C 275 79.214 274.246 79.971 272.277 80.161 A 10.595 10.595 0 0 1 271.7 80.2 C 269.3 80.2 260.4 80.3 252.5 79.8 C 254.199 82.915 256.255 88.169 256.984 91.692 A 18.001 18.001 0 0 1 257.1 92.3 A 462.56 462.56 0 0 0 264.531 92.257 C 269.309 92.178 273.203 91.961 276.369 91.366 A 21.357 21.357 0 0 0 280.5 90.2 C 285.2 88.2 286.9 84.7 286.9 77.4 L 286.9 16.5 L 294.2 16.5 L 294.2 4.9 Z M 105.9 5.7 L 105.9 91.4 L 117.8 91.4 L 117.8 85.3 L 176.9 85.3 L 176.9 91.4 L 189.3 91.4 L 189.3 5.7 L 105.9 5.7 Z M 49.1 8.5 L 49.1 87.7 L 60.8 87.7 L 60.8 79.8 L 76.8 79.8 L 76.8 87 L 89.1 87 L 89.1 8.5 L 49.1 8.5 Z M 266.4 64 L 266.4 27.1 L 233.4 27.1 L 233.4 70.6 L 244.1 70.6 L 244.1 64 L 266.4 64 Z M 60.8 68.4 L 60.8 19.9 L 76.8 19.9 L 76.8 68.4 L 60.8 68.4 Z M 230.1 59.8 L 221.3 51.8 A 241.65 241.65 0 0 1 218.726 56.716 C 213.775 65.919 208.113 75.123 203.631 81.56 A 134.637 134.637 0 0 1 202.4 83.3 L 212.5 91.3 A 350.855 350.855 0 0 0 216.686 84.346 C 221.354 76.392 226.023 67.8 230.1 59.8 Z M 152.9 73.3 L 152.9 51.1 L 176.9 51.1 L 176.9 73.3 L 152.9 73.3 Z M 176.9 39.2 L 152.9 39.2 L 152.9 17.2 L 176.9 17.2 L 176.9 39.2 Z M 117.8 51.1 L 140.8 51.1 L 140.8 73.3 L 117.8 73.3 L 117.8 51.1 Z M 140.8 17.2 L 140.8 39.2 L 117.8 39.2 L 117.8 17.2 L 140.8 17.2 Z M 206.2 27.7 L 199.7 36.5 C 205.041 39.349 212.443 43.386 216.896 46.284 A 47.376 47.376 0 0 1 218.4 47.3 L 225 37.4 C 220.6 34.7 211.7 30.4 206.2 27.7 Z M 255.5 37.7 L 255.5 53.4 L 244.1 53.4 L 244.1 37.7 L 255.5 37.7 Z" vector-effect="non-scaling-stroke"/></g></svg>