<svg width="292.7" height="93.901" viewBox="0 0 292.7 93.901" xmlns="http://www.w3.org/2000/svg"><g id="svgGroup" stroke-linecap="round" fill-rule="evenodd" font-size="9pt" stroke="#000" stroke-width="0.25mm" fill="black" style="stroke:#000;stroke-width:0.25mm;fill:black"><path d="M 90.4 39.8 L 90.4 27.5 L 51.1 27.5 A 224.443 224.443 0 0 0 52.196 7.936 A 943.079 943.079 0 0 0 52.3 0.8 L 39.3 0.8 C 39.232 6.398 39.257 12.416 38.961 18.662 A 150.911 150.911 0 0 1 38.3 27.5 L 1.9 27.5 L 1.9 39.8 L 36.3 39.8 A 61.72 61.72 0 0 1 22.108 68.25 C 16.667 74.256 9.482 79.577 0 83.8 C 3.5 86.3 7 90.6 8.9 93.9 A 76.43 76.43 0 0 0 25.523 83.194 C 36.18 74.092 42.545 63.012 46.3 51.4 A 89.95 89.95 0 0 0 61.044 76.483 A 67.036 67.036 0 0 0 83.8 93.8 C 85.665 90.462 89.459 85.292 92.435 82.739 A 15.184 15.184 0 0 1 92.6 82.6 A 65.6 65.6 0 0 1 56.332 42.964 A 96.456 96.456 0 0 1 55.2 39.8 L 90.4 39.8 Z M 148.4 36.6 L 148.4 51.3 L 182.8 51.3 L 182.8 36.6 L 191.5 36.6 L 191.5 27.3 L 182.8 27.3 L 182.8 21 L 171.8 21 L 171.8 27.3 L 158.9 27.3 L 158.9 21 L 148.4 21 L 148.4 27.3 L 140.4 27.3 L 140.4 19.2 L 191.8 19.2 L 191.8 9.3 L 168.6 9.3 A 82.117 82.117 0 0 0 167.489 6.2 C 166.739 4.221 165.911 2.203 165.151 0.365 A 1394.826 1394.826 0 0 0 165 0 L 153.8 2.5 C 154.7 4.5 155.5 6.9 156.2 9.3 L 129.2 9.3 L 129.2 36.4 A 257.937 257.937 0 0 1 129.063 45.275 C 128.585 59.189 126.577 75.812 118.9 87.9 C 121.672 88.916 126.067 91.299 128.375 93.075 A 12.863 12.863 0 0 1 128.9 93.5 C 137.033 80.601 139.565 61.696 140.209 46.154 A 230.971 230.971 0 0 0 140.4 36.6 L 148.4 36.6 Z M 292.7 6.5 L 227.7 6.5 L 227.7 12.3 A 66.339 66.339 0 0 0 225.493 10.883 C 220.947 8.075 214.252 4.476 209.5 2.1 L 202.7 10.5 C 208.5 14 216.9 19 220.9 21.9 L 227.7 12.8 L 227.7 18.1 L 273.5 18.1 L 273.5 78.8 C 273.5 80.814 272.746 81.571 270.777 81.761 A 10.595 10.595 0 0 1 270.2 81.8 C 267.8 81.8 258.9 81.9 251 81.4 C 252.699 84.515 254.755 89.769 255.484 93.292 A 18.001 18.001 0 0 1 255.6 93.9 A 462.56 462.56 0 0 0 263.031 93.857 C 267.809 93.778 271.703 93.561 274.869 92.966 A 21.357 21.357 0 0 0 279 91.8 C 283.7 89.8 285.4 86.3 285.4 79 L 285.4 18.1 L 292.7 18.1 L 292.7 6.5 Z M 182.3 54.6 L 180.3 55 L 178.1 55 L 178.1 55.1 L 141.8 55.1 L 141.8 64.4 L 145.7 64.4 A 56.629 56.629 0 0 0 155.626 77.732 A 55.109 55.109 0 0 0 156 78.1 A 73.393 73.393 0 0 1 143.817 82.437 A 98.877 98.877 0 0 1 135.8 84.2 A 19.675 19.675 0 0 1 136.574 85.154 C 138.427 87.577 140.537 91.263 141.5 93.8 A 102.566 102.566 0 0 0 159.534 87.986 A 71.474 71.474 0 0 0 165.2 85.2 A 61.273 61.273 0 0 0 177.554 90.989 A 89.413 89.413 0 0 0 186.7 93.6 A 25.198 25.198 0 0 1 187.457 92.166 C 189.118 89.234 191.765 85.665 193.9 83.7 C 186.9 82.5 180.7 80.6 175.3 78.2 A 49.825 49.825 0 0 0 188.225 60.867 A 54.927 54.927 0 0 0 189.5 57.8 L 182.3 54.6 Z M 264.9 65.6 L 264.9 28.7 L 231.9 28.7 L 231.9 72.2 L 242.6 72.2 L 242.6 65.6 L 264.9 65.6 Z M 228.6 61.4 L 219.8 53.4 A 241.65 241.65 0 0 1 217.226 58.316 C 212.275 67.519 206.613 76.723 202.131 83.16 A 134.637 134.637 0 0 1 200.9 84.9 L 211 92.9 A 350.855 350.855 0 0 0 215.186 85.946 C 219.854 77.992 224.523 69.4 228.6 61.4 Z M 100 86.2 L 110.9 93 C 114.033 86.4 117.3 79 120.315 71.6 A 368.959 368.959 0 0 0 124.6 60.6 L 114.9 53.8 A 236.675 236.675 0 0 1 112.925 58.842 C 108.747 69.168 103.782 79.495 100 86.2 Z M 204.7 29.3 L 198.2 38.1 C 203.541 40.949 210.943 44.986 215.396 47.884 A 47.376 47.376 0 0 1 216.9 48.9 L 223.5 39 C 219.1 36.3 210.2 32 204.7 29.3 Z M 105.5 27.8 L 99.1 36.8 C 105.2 39.5 113.1 43.8 116.7 47.1 L 123.6 37.1 A 25.293 25.293 0 0 0 122.038 35.919 C 117.751 32.911 110.885 29.654 105.5 27.8 Z M 110.3 1.6 L 103.7 10.5 A 70.699 70.699 0 0 1 106.88 12.002 C 111.755 14.449 116.971 17.692 119.976 20.41 A 20.108 20.108 0 0 1 120.5 20.9 L 127.5 11.1 A 24.51 24.51 0 0 0 125.867 9.817 C 122.297 7.227 116.813 4.357 112.103 2.343 A 74.124 74.124 0 0 0 110.3 1.6 Z M 254 39.3 L 254 55 L 242.6 55 L 242.6 39.3 L 254 39.3 Z M 157.9 64.4 L 173.8 64.4 C 171.5 67.4 168.8 70 165.6 72.3 C 162.6 70 160 67.4 157.9 64.4 Z M 171.8 36.6 L 171.8 42.3 L 158.9 42.3 L 158.9 36.6 L 171.8 36.6 Z" vector-effect="non-scaling-stroke"/></g></svg>