<svg width="294.3" height="93.4" viewBox="0 0 294.3 93.4" xmlns="http://www.w3.org/2000/svg"><g id="svgGroup" stroke-linecap="round" fill-rule="evenodd" font-size="9pt" stroke="#000" stroke-width="0.25mm" fill="black" style="stroke:#000;stroke-width:0.25mm;fill:black"><path d="M 267.7 75.5 L 267.7 20.3 L 289.8 20.3 L 289.8 8.4 L 234.4 8.4 L 234.4 20.3 L 254.7 20.3 L 254.7 75.5 L 229 75.5 L 229 87.4 L 294.3 87.4 L 294.3 75.5 L 267.7 75.5 Z M 26.6 34.4 L 26.6 30.7 L 38.2 30.7 L 38.2 19.7 L 26.6 19.7 L 26.6 0 L 15 0 L 15 19.7 L 1.2 19.7 L 1.2 30.7 L 14.3 30.7 C 11.4 42.8 6 56.7 0 64.6 A 41.569 41.569 0 0 1 0.706 65.801 C 2.381 68.752 4.351 72.912 5.393 75.888 A 27.053 27.053 0 0 1 5.6 76.5 A 51.322 51.322 0 0 0 9.095 70.478 C 10.369 67.935 11.587 65.11 12.738 62.08 A 132.527 132.527 0 0 0 15 55.6 L 15 93.4 L 26.6 93.4 L 26.6 50.6 C 29.095 55.331 31.515 60.21 33.225 64.028 A 100.85 100.85 0 0 1 34 65.8 L 42.1 56.3 A 81.441 81.441 0 0 0 41.23 54.971 C 38.131 50.314 30.276 39.062 26.6 34.4 Z M 161.3 75.3 L 161.3 60.5 A 278.7 278.7 0 0 0 181.922 49.892 A 183.157 183.157 0 0 0 190.3 44.8 L 182 35 A 163.038 163.038 0 0 1 176.2 39.101 C 171.694 42.146 166.662 45.244 161.3 48.2 L 161.3 30 L 149.1 30 L 149.1 54.5 C 144 56.9 138.7 59.3 133.6 61.3 A 44.271 44.271 0 0 1 134.293 62.374 C 135.486 64.281 136.84 66.732 137.73 68.872 A 19.756 19.756 0 0 1 138.3 70.4 C 141.9 69 145.4 67.5 149.1 65.9 L 149.1 75.3 C 149.1 87.155 152.021 91.22 162.528 91.659 A 49.679 49.679 0 0 0 164.6 91.7 L 179.6 91.7 C 189.662 91.7 193.146 87.195 194.671 72.882 A 120.026 120.026 0 0 0 194.9 70.5 C 192.2 69.865 188.427 68.472 185.636 66.824 A 15.839 15.839 0 0 1 183.7 65.5 C 183.2 77.9 182.5 80.3 178.6 80.3 L 166.2 80.3 A 20.678 20.678 0 0 1 164.52 80.244 C 161.735 80.013 161.3 78.962 161.3 75.3 Z M 76.3 74.6 L 54 76.9 C 60.4 65 66.6 50.4 70.9 36.2 L 58.3 31.7 A 157.925 157.925 0 0 1 57.028 36.46 C 53.284 49.669 47.846 62.877 44.845 69.012 A 42.453 42.453 0 0 1 43.6 71.4 A 72.533 72.533 0 0 1 42.552 73.347 C 40.688 76.673 39.082 78.71 37.09 79.605 A 5.902 5.902 0 0 1 36.6 79.8 A 40.904 40.904 0 0 1 37.099 80.916 C 38.211 83.499 39.465 86.987 40.304 89.494 A 107.223 107.223 0 0 1 40.7 90.7 L 40.7 91.5 L 40.9 91.4 L 40.9 91.5 L 40.9 91.4 C 44.127 90.017 49.139 89.144 73.724 85.96 A 5636.512 5636.512 0 0 1 80.4 85.1 A 128.324 128.324 0 0 1 81.698 89.584 A 76.155 76.155 0 0 1 82.4 92.4 L 93.3 87.2 A 71.479 71.479 0 0 0 91.609 81.852 C 88.761 73.826 84.035 63.7 79.746 55.462 A 264.013 264.013 0 0 0 79.4 54.8 L 69.4 59 A 271.911 271.911 0 0 1 71.649 63.817 C 71.674 63.871 71.698 63.924 71.722 63.978 A 293.42 293.42 0 0 1 76.3 74.6 Z M 125.5 27.5 L 137.6 27.5 L 137.6 20 L 158.4 20 L 158.4 27.6 L 170.7 27.6 L 170.7 20 L 192 20 L 192 8.6 L 170.7 8.6 L 170.7 0 L 158.4 0 L 158.4 8.6 L 137.6 8.6 L 137.6 0 L 125.5 0 L 125.5 8.6 L 103.4 8.6 L 103.4 20 L 125.5 20 L 125.5 27.5 Z M 118.2 60.3 L 118.2 93.4 L 130.5 93.4 L 130.5 45.5 C 133.6 41.2 136.3 36.6 138.6 32 L 126.7 28.3 A 78.691 78.691 0 0 1 101.637 58.04 A 54.276 54.276 0 0 1 101.4 58.2 A 45.565 45.565 0 0 1 102.654 59.133 C 105.074 60.992 108.278 63.733 110.345 65.678 A 43.827 43.827 0 0 1 111.3 66.6 A 94.947 94.947 0 0 0 114.132 64.194 C 114.711 63.681 115.294 63.15 115.878 62.6 A 64.532 64.532 0 0 0 118.2 60.3 Z M 62.3 5.4 L 50.1 3 A 107.992 107.992 0 0 1 41.482 28.771 C 39.194 33.359 36.587 37.438 33.7 40.7 A 39.621 39.621 0 0 1 35.074 41.426 C 37.7 42.872 41.222 45.094 43.478 46.73 A 30.749 30.749 0 0 1 44.5 47.5 A 75.856 75.856 0 0 0 51.521 36.015 C 54.596 29.936 57.342 22.979 59.566 15.687 A 146.516 146.516 0 0 0 62.3 5.4 Z M 78.3 1.9 L 67.1 4.5 C 71.2 22.9 76.3 35.6 85.5 47.4 C 87.3 44 91.2 39.8 94.5 37.2 A 66.689 66.689 0 0 1 83.532 18.685 C 81.897 14.643 80.467 10.231 79.174 5.353 A 163.353 163.353 0 0 1 78.3 1.9 Z M 204.9 84.2 L 214.9 92.3 A 439.834 439.834 0 0 0 219.45 84.692 C 223.87 77.134 228.289 69.091 232.1 61.589 A 352.127 352.127 0 0 0 232.5 60.8 L 223.7 52.8 A 253.428 253.428 0 0 1 220.846 58.197 C 215.988 67.128 210.495 76.058 206.173 82.369 A 151.72 151.72 0 0 1 204.9 84.2 Z M 207.9 28.6 L 201.4 37.4 A 315.677 315.677 0 0 1 204.635 39.096 C 210.18 42.042 216.677 45.708 220 48.2 L 226.6 38.3 C 222.2 35.5 213.4 31.2 207.9 28.6 Z M 214.2 1.5 L 207.3 9.9 C 212.399 13.031 219.418 17.362 223.634 20.531 A 41.218 41.218 0 0 1 225 21.6 L 232.2 12.2 A 51.019 51.019 0 0 0 230.526 11.032 C 226.353 8.231 219.833 4.504 215.052 1.952 A 189.974 189.974 0 0 0 214.2 1.5 Z" vector-effect="non-scaling-stroke"/></g></svg>