<svg width="192.9" height="91.7" viewBox="0 0 192.9 91.7" xmlns="http://www.w3.org/2000/svg"><g id="svgGroup" stroke-linecap="round" fill-rule="evenodd" font-size="9pt" stroke="#000" stroke-width="0.25mm" fill="black" style="stroke:#000;stroke-width:0.25mm;fill:black"><path d="M 166.3 74 L 166.3 18.8 L 188.4 18.8 L 188.4 6.9 L 133 6.9 L 133 18.8 L 153.3 18.8 L 153.3 74 L 127.6 74 L 127.6 85.9 L 192.9 85.9 L 192.9 74 L 166.3 74 Z M 81.6 4.4 L 79.6 4.9 L 32.5 4.9 L 32.5 16.1 L 40.7 16.1 L 35.4 17.2 A 183.577 183.577 0 0 0 42.52 41.105 A 114.606 114.606 0 0 0 54 63.9 C 46.2 72.1 36.6 78 25.8 81.7 C 28.1 84 31.1 88.6 32.5 91.7 A 85.092 85.092 0 0 0 57.73 76.557 A 75.531 75.531 0 0 0 61.2 73.3 A 73.812 73.812 0 0 0 83.186 90.092 A 80.987 80.987 0 0 0 85.9 91.4 C 87.556 88.673 90.919 84.144 93.495 81.784 A 16.062 16.062 0 0 1 93.7 81.6 C 83.9 77.6 75.8 71.6 69.1 64.1 C 77.01 53.292 82.896 39.54 86.518 22.172 A 181.788 181.788 0 0 0 89 6.9 L 81.6 4.4 Z M 46.8 16.1 L 76.4 16.1 C 73.798 30.317 69.211 42.289 63.119 52.096 A 81.521 81.521 0 0 1 61.7 54.3 A 106.803 106.803 0 0 1 50.694 30.509 A 143.198 143.198 0 0 1 46.8 16.1 Z M 103.5 82.7 L 113.5 90.8 A 439.834 439.834 0 0 0 118.05 83.192 C 122.47 75.634 126.889 67.591 130.7 60.089 A 352.127 352.127 0 0 0 131.1 59.3 L 122.3 51.3 A 253.428 253.428 0 0 1 119.446 56.697 C 114.588 65.628 109.095 74.558 104.773 80.869 A 151.72 151.72 0 0 1 103.5 82.7 Z M 2.6 82.7 L 12.1 90.7 A 353.396 353.396 0 0 0 16.217 83.746 C 20.808 75.792 25.4 67.2 29.4 59.2 L 21.2 51.2 A 262.782 262.782 0 0 1 18.632 56.116 C 13.24 66.184 7.07 76.253 2.6 82.7 Z M 5.7 26.9 L 0 35.8 A 119.254 119.254 0 0 1 3.359 37.414 C 8.483 39.971 14.269 43.267 17.818 45.956 A 27.074 27.074 0 0 1 19 46.9 L 25.2 36.9 C 20.8 33.7 12.1 29.4 5.7 26.9 Z M 11.1 0.3 L 5 8.9 A 90.497 90.497 0 0 1 7.882 10.317 C 13.106 12.997 18.862 16.526 22.33 19.448 A 24.751 24.751 0 0 1 23.4 20.4 L 29.9 10.8 C 25.8 7.3 17.3 2.9 11.1 0.3 Z M 106.5 27.1 L 100 35.9 A 315.677 315.677 0 0 1 103.235 37.596 C 108.78 40.542 115.277 44.208 118.6 46.7 L 125.2 36.8 C 120.8 34 112 29.7 106.5 27.1 Z M 112.8 0 L 105.9 8.4 C 110.999 11.531 118.018 15.862 122.234 19.031 A 41.218 41.218 0 0 1 123.6 20.1 L 130.8 10.7 A 51.019 51.019 0 0 0 129.126 9.532 C 124.953 6.731 118.433 3.004 113.652 0.452 A 189.974 189.974 0 0 0 112.8 0 Z" vector-effect="non-scaling-stroke"/></g></svg>