<svg width="193.5" height="93.3" viewBox="0 0 193.5 93.3" xmlns="http://www.w3.org/2000/svg"><g id="svgGroup" stroke-linecap="round" fill-rule="evenodd" font-size="9pt" stroke="#000" stroke-width="0.25mm" fill="black" style="stroke:#000;stroke-width:0.25mm;fill:black"><path d="M 76.8 76.6 L 76.8 45.9 L 93.5 45.9 L 93.5 34.5 L 29.5 34.5 L 29.5 45.9 L 44.4 45.9 A 90.894 90.894 0 0 1 42.403 61.701 C 40.609 69.078 37.206 75.296 30.235 80.077 A 38.917 38.917 0 0 1 24.5 83.3 C 27.172 85.576 30.432 90.008 31.856 93.201 A 15.324 15.324 0 0 1 31.9 93.3 A 41.519 41.519 0 0 0 44.125 84.442 C 53.291 74.624 55.508 61.283 56.4 45.9 L 65 45.9 L 65 76.7 C 65 87.596 66.927 91.361 75.604 91.496 A 31.861 31.861 0 0 0 76.1 91.5 L 82.9 91.5 A 9.668 9.668 0 0 0 88.497 90.069 C 91.394 88.103 93.007 83.884 93.846 76.051 A 112.5 112.5 0 0 0 94.3 70.2 A 25.951 25.951 0 0 1 92.773 69.751 C 89.806 68.786 86 67.071 83.931 65.407 A 9.645 9.645 0 0 1 83.8 65.3 A 618.716 618.716 0 0 1 83.7 69.186 C 83.469 77.023 83.163 79.55 82.272 80.204 A 1.089 1.089 0 0 1 81.6 80.4 L 78.3 80.4 A 2.245 2.245 0 0 1 77.611 80.321 C 77.014 80.124 76.842 79.481 76.807 77.564 A 53.441 53.441 0 0 1 76.8 76.6 Z M 166.9 75.3 L 166.9 20.1 L 189 20.1 L 189 8.2 L 133.6 8.2 L 133.6 20.1 L 153.9 20.1 L 153.9 75.3 L 128.2 75.3 L 128.2 87.2 L 193.5 87.2 L 193.5 75.3 L 166.9 75.3 Z M 86.1 7.1 L 36.1 7.1 L 36.1 18.4 L 86.1 18.4 L 86.1 7.1 Z M 104.1 84 L 114.1 92.1 A 439.834 439.834 0 0 0 118.65 84.492 C 123.07 76.934 127.489 68.891 131.3 61.389 A 352.127 352.127 0 0 0 131.7 60.6 L 122.9 52.6 A 253.428 253.428 0 0 1 120.046 57.997 C 115.188 66.928 109.695 75.858 105.373 82.169 A 151.72 151.72 0 0 1 104.1 84 Z M 3 84.2 L 13.2 92 A 316.143 316.143 0 0 0 16.892 85.607 C 19.499 80.971 22.107 76.086 24.585 71.2 A 365.196 365.196 0 0 0 29.8 60.5 L 21 52.8 C 15.3 64.2 8.1 76.6 3 84.2 Z M 5.9 26.8 L 0 35.9 A 1657.209 1657.209 0 0 1 3.258 37.695 C 8.169 40.411 13.94 43.657 17.703 46.097 A 53.583 53.583 0 0 1 19.2 47.1 L 25.2 36.8 A 75 75 0 0 0 23.253 35.677 C 18.416 32.971 10.867 29.24 5.9 26.8 Z M 12.1 0 L 5.9 9 A 436.478 436.478 0 0 0 8.648 10.642 C 14.204 13.939 21.122 17.959 24.7 20.6 L 31.1 10.5 A 77.993 77.993 0 0 0 29.198 9.333 C 24.738 6.673 17.882 3.008 13.02 0.478 A 505.292 505.292 0 0 0 12.1 0 Z M 107.1 28.4 L 100.6 37.2 A 315.677 315.677 0 0 1 103.835 38.896 C 109.38 41.842 115.877 45.508 119.2 48 L 125.8 38.1 C 121.4 35.3 112.6 31 107.1 28.4 Z M 113.4 1.3 L 106.5 9.7 C 111.599 12.831 118.618 17.162 122.834 20.331 A 41.218 41.218 0 0 1 124.2 21.4 L 131.4 12 A 51.019 51.019 0 0 0 129.726 10.832 C 125.553 8.031 119.033 4.304 114.252 1.752 A 189.974 189.974 0 0 0 113.4 1.3 Z" vector-effect="non-scaling-stroke"/></g></svg>