<svg width="192.9" height="93.201" viewBox="0 0 192.9 93.201" xmlns="http://www.w3.org/2000/svg"><g id="svgGroup" stroke-linecap="round" fill-rule="evenodd" font-size="9pt" stroke="#000" stroke-width="0.25mm" fill="black" style="stroke:#000;stroke-width:0.25mm;fill:black"><path d="M 93.2 57.7 L 93.2 46.9 L 86.1 46.9 A 701.407 701.407 0 0 1 86.357 41.7 C 86.48 39.324 86.61 36.854 86.721 34.264 A 384.989 384.989 0 0 0 86.8 32.3 A 21.841 21.841 0 0 0 86.825 31.845 C 86.893 30.345 86.899 27.823 86.9 27.371 A 61.792 61.792 0 0 0 86.9 27.3 L 39.6 27.3 A 67.935 67.935 0 0 0 42.022 22.967 A 5621.425 5621.425 0 0 0 43.2 20.7 L 90.6 20.7 L 90.6 10.1 L 48.1 10.1 C 49.1 7.7 50 5.2 50.8 2.9 L 39.3 0 A 91.568 91.568 0 0 1 38.183 3.378 C 35.671 10.51 32.189 17.643 28.196 23.458 A 51.21 51.21 0 0 1 23.3 29.6 A 42.263 42.263 0 0 1 24.327 30.171 C 26.808 31.591 30.29 33.834 32.516 35.394 A 48.859 48.859 0 0 1 33.5 36.1 A 81.167 81.167 0 0 0 34.882 34.328 C 35.661 33.297 36.45 32.188 37.2 31 A 525.369 525.369 0 0 1 35.658 44.876 A 458.769 458.769 0 0 1 35.4 46.9 L 25.1 46.9 L 25.1 57.7 L 34 57.7 C 33.038 64.438 31.998 70.869 30.95 76.19 A 174.859 174.859 0 0 1 30.5 78.4 L 71.9 78.4 A 12.796 12.796 0 0 1 71.624 79.354 C 71.281 80.379 70.891 81.031 70.5 81.5 A 6.718 6.718 0 0 1 70.293 81.757 C 69.371 82.84 68.482 83.1 66.9 83.1 C 64.9 83.1 61 83.1 56.6 82.7 A 16.931 16.931 0 0 1 57.776 84.966 C 58.801 87.33 59.5 90.099 59.682 92.175 A 13.769 13.769 0 0 1 59.7 92.4 C 63.841 92.664 68.06 92.696 71.057 92.357 A 21.981 21.981 0 0 0 72.2 92.2 A 15.63 15.63 0 0 0 75.923 91.245 C 77.519 90.578 78.911 89.516 80.2 87.7 A 9.842 9.842 0 0 0 81.308 85.814 C 82.091 84.108 82.744 81.738 83.3 78.4 L 90.7 78.4 L 90.7 68.3 L 84.6 68.3 A 427.243 427.243 0 0 0 85.022 63.667 C 85.181 61.809 85.341 59.825 85.5 57.7 L 93.2 57.7 Z M 192.9 5.8 L 127.9 5.8 L 127.9 11.6 A 66.339 66.339 0 0 0 125.693 10.183 C 121.147 7.375 114.452 3.776 109.7 1.4 L 102.9 9.8 C 108.7 13.3 117.1 18.3 121.1 21.2 L 127.9 12.1 L 127.9 17.4 L 173.7 17.4 L 173.7 78.1 C 173.7 80.114 172.946 80.871 170.977 81.061 A 10.595 10.595 0 0 1 170.4 81.1 C 168 81.1 159.1 81.2 151.2 80.7 C 152.899 83.815 154.955 89.069 155.684 92.592 A 18.001 18.001 0 0 1 155.8 93.2 A 462.56 462.56 0 0 0 163.231 93.157 C 168.009 93.078 171.903 92.861 175.069 92.266 A 21.357 21.357 0 0 0 179.2 91.1 C 183.9 89.1 185.6 85.6 185.6 78.3 L 185.6 17.4 L 192.9 17.4 L 192.9 5.8 Z M 165.1 64.9 L 165.1 28 L 132.1 28 L 132.1 71.5 L 142.8 71.5 L 142.8 64.9 L 165.1 64.9 Z M 128.8 60.7 L 120 52.7 A 241.65 241.65 0 0 1 117.426 57.616 C 112.475 66.819 106.813 76.023 102.331 82.46 A 134.637 134.637 0 0 1 101.1 84.2 L 111.2 92.2 A 350.855 350.855 0 0 0 115.386 85.246 C 120.054 77.292 124.723 68.7 128.8 60.7 Z M 25.6 59.8 L 16.5 53.2 A 322.364 322.364 0 0 1 14.262 59.106 C 10.406 68.994 6.017 78.883 2.6 85.3 L 13 91.8 A 289.244 289.244 0 0 0 14.469 88.471 C 18.39 79.435 22.311 69.222 25.6 59.8 Z M 104.9 28.6 L 98.4 37.4 C 103.741 40.249 111.143 44.286 115.596 47.184 A 47.376 47.376 0 0 1 117.1 48.2 L 123.7 38.3 C 119.3 35.6 110.4 31.3 104.9 28.6 Z M 12.2 1.6 L 5.6 9.6 A 132.085 132.085 0 0 1 8.537 11.22 C 13.208 13.872 18.433 17.188 21.662 19.893 A 25.673 25.673 0 0 1 22.8 20.9 L 29.9 11.9 C 26.425 9.12 20.007 5.434 14.579 2.744 A 108.568 108.568 0 0 0 12.2 1.6 Z M 6.4 29.9 L 0 38 C 5.6 41 12.8 45.6 16.2 49 L 23 40 A 30.162 30.162 0 0 0 21.251 38.572 C 17.791 35.937 12.609 32.867 8.136 30.708 A 64.364 64.364 0 0 0 6.4 29.9 Z M 154.2 38.6 L 154.2 54.3 L 142.8 54.3 L 142.8 38.6 L 154.2 38.6 Z M 64.2 68.3 L 67.4 66.1 A 27.491 27.491 0 0 0 65.896 64.39 C 63.855 62.238 61.086 59.816 58.5 57.7 L 74.6 57.7 A 351.956 351.956 0 0 1 74.373 60.706 C 74.259 62.141 74.14 63.477 74.013 64.735 A 112.665 112.665 0 0 1 73.6 68.3 L 64.2 68.3 Z M 53.7 57.7 L 49.9 60.1 A 102.848 102.848 0 0 1 52.05 61.93 C 54.372 63.962 56.775 66.247 58.6 68.3 L 43.5 68.3 C 44 64.9 44.5 61.4 45 57.7 L 53.7 57.7 Z M 75.2 46.9 L 65.6 46.9 L 68.4 45 A 25.452 25.452 0 0 0 67.101 43.467 C 65.752 41.983 64.026 40.331 62.301 38.755 A 175.93 175.93 0 0 0 60.8 37.4 L 75.6 37.4 A 224.724 224.724 0 0 1 75.456 41.109 C 75.364 43.111 75.263 45.025 75.2 46.9 Z M 56 37.4 L 52.6 39.6 C 54.851 41.581 57.345 43.967 59.28 46.175 A 38.519 38.519 0 0 1 59.9 46.9 L 46.4 46.9 C 46.8 43.7 47.2 40.6 47.6 37.4 L 56 37.4 Z" vector-effect="non-scaling-stroke"/></g></svg>