<svg width="193.9" height="92.9" viewBox="0 0 193.9 92.9" xmlns="http://www.w3.org/2000/svg"><g id="svgGroup" stroke-linecap="round" fill-rule="evenodd" font-size="9pt" stroke="#000" stroke-width="0.25mm" fill="black" style="stroke:#000;stroke-width:0.25mm;fill:black"><path d="M 93.8 75.8 L 75.2 75.8 L 75.2 66.4 L 90.1 66.4 L 90.1 55.9 L 75.2 55.9 L 75.2 46.9 L 90.2 46.9 L 90.2 36.4 L 75.2 36.4 L 75.2 27.5 L 92.2 27.5 L 92.2 16.6 L 71.8 16.6 L 78.3 13.8 C 77.258 10.2 74.6 4.805 71.943 0.676 A 50.173 50.173 0 0 0 71.5 0 L 60.8 4.3 C 62.572 7.506 64.415 11.353 65.729 14.76 A 51.175 51.175 0 0 1 66.4 16.6 L 51.8 16.6 C 53.8 12.2 55.7 7.7 57.3 3.3 L 45.9 0.1 C 42.319 10.693 36.847 21.619 30.727 30.306 A 74.992 74.992 0 0 1 24.3 38.3 A 29.817 29.817 0 0 1 25.376 39.218 C 27.983 41.539 31.53 45.294 33.1 47.3 A 91.789 91.789 0 0 0 36.25 43.264 A 79.21 79.21 0 0 0 37.3 41.8 L 37.3 92.9 L 49 92.9 L 49 86.7 L 93.8 86.7 L 93.8 75.8 Z M 193.9 5.2 L 128.9 5.2 L 128.9 11 A 66.339 66.339 0 0 0 126.693 9.583 C 122.147 6.775 115.452 3.176 110.7 0.8 L 103.9 9.2 C 109.7 12.7 118.1 17.7 122.1 20.6 L 128.9 11.5 L 128.9 16.8 L 174.7 16.8 L 174.7 77.5 C 174.7 79.514 173.946 80.271 171.977 80.461 A 10.595 10.595 0 0 1 171.4 80.5 C 169 80.5 160.1 80.6 152.2 80.1 C 153.899 83.215 155.955 88.469 156.684 91.992 A 18.001 18.001 0 0 1 156.8 92.6 A 462.56 462.56 0 0 0 164.231 92.557 C 169.009 92.478 172.903 92.261 176.069 91.666 A 21.357 21.357 0 0 0 180.2 90.5 C 184.9 88.5 186.6 85 186.6 77.7 L 186.6 16.8 L 193.9 16.8 L 193.9 5.2 Z M 166.1 64.3 L 166.1 27.4 L 133.1 27.4 L 133.1 70.9 L 143.8 70.9 L 143.8 64.3 L 166.1 64.3 Z M 129.8 60.1 L 121 52.1 A 241.65 241.65 0 0 1 118.426 57.016 C 113.475 66.219 107.813 75.423 103.331 81.86 A 134.637 134.637 0 0 1 102.1 83.6 L 112.2 91.6 A 350.855 350.855 0 0 0 116.386 84.646 C 121.054 76.692 125.723 68.1 129.8 60.1 Z M 28.7 59.5 L 19.4 51.5 A 283.922 283.922 0 0 1 17.095 56.458 C 12.257 66.612 6.726 76.767 2.6 83.3 L 13.2 91.3 A 363.273 363.273 0 0 0 23.133 71.732 A 470.218 470.218 0 0 0 28.7 59.5 Z M 105.9 28 L 99.4 36.8 C 104.741 39.649 112.143 43.686 116.596 46.584 A 47.376 47.376 0 0 1 118.1 47.6 L 124.7 37.7 C 120.3 35 111.4 30.7 105.9 28 Z M 12.4 0.6 L 6 9.5 A 226.967 226.967 0 0 1 9.05 11.165 C 14.157 14.003 20.019 17.516 23 20 L 29.8 10.2 A 43.103 43.103 0 0 0 27.884 8.929 C 23.788 6.353 17.736 3.235 13.233 1.01 A 331.615 331.615 0 0 0 12.4 0.6 Z M 6.2 27.2 L 0 36.3 A 666.186 666.186 0 0 1 2.815 37.82 C 7.245 40.226 12.432 43.131 15.73 45.39 A 33.358 33.358 0 0 1 17 46.3 L 23.5 36.1 C 19.504 33.566 11.899 29.797 6.609 27.386 A 178.695 178.695 0 0 0 6.2 27.2 Z M 155.2 38 L 155.2 53.7 L 143.8 53.7 L 143.8 38 L 155.2 38 Z M 49 66.4 L 63.7 66.4 L 63.7 75.8 L 49 75.8 L 49 66.4 Z M 63.7 55.9 L 49 55.9 L 49 46.9 L 63.7 46.9 L 63.7 55.9 Z M 63.7 36.4 L 49 36.4 L 49 27.5 L 63.7 27.5 L 63.7 36.4 Z" vector-effect="non-scaling-stroke"/></g></svg>