<svg width="293.8" height="94.301" viewBox="0 0 293.8 94.301" xmlns="http://www.w3.org/2000/svg"><g id="svgGroup" stroke-linecap="round" fill-rule="evenodd" font-size="9pt" stroke="#000" stroke-width="0.25mm" fill="black" style="stroke:#000;stroke-width:0.25mm;fill:black"><path d="M 135.6 41.4 L 135.6 76 A 37.861 37.861 0 0 0 136.002 81.949 C 137.344 90.294 142.241 92.7 153.6 92.7 L 173.7 92.7 A 28.55 28.55 0 0 0 179.901 92.125 C 185.948 90.768 188.812 86.828 190.373 78.451 A 80.972 80.972 0 0 0 191.3 71.6 C 187.946 70.811 182.937 68.854 180.114 66.881 A 13.67 13.67 0 0 1 180 66.8 C 179.36 78.043 178.47 80.764 174.121 81.148 A 15.068 15.068 0 0 1 172.8 81.2 L 154.8 81.2 C 148.8 81.2 147.8 80.6 147.8 76 L 147.8 46.9 L 169.1 46.9 A 131.32 131.32 0 0 1 168.844 50.335 C 168.408 55.226 167.812 57.912 167.054 59.141 A 2.506 2.506 0 0 1 166.7 59.6 A 3.048 3.048 0 0 1 165.807 60.309 C 165.443 60.496 165.041 60.6 164.577 60.653 A 8.662 8.662 0 0 1 163.6 60.7 A 70.326 70.326 0 0 1 162.378 60.688 C 160.327 60.652 157.112 60.525 153.7 60.2 A 17.571 17.571 0 0 1 155.112 62.948 C 155.921 64.898 156.497 67.078 156.763 69.038 A 18.91 18.91 0 0 1 156.9 70.4 C 161.9 70.5 166.5 70.5 169.2 70.1 A 15.3 15.3 0 0 0 172.255 69.532 C 173.914 69.018 175.319 68.138 176.6 66.6 A 8.417 8.417 0 0 0 178.15 63.69 C 179.479 59.793 180.174 52.741 180.7 40.5 C 182.4 41.8 184.2 43.1 185.8 44.2 A 45.952 45.952 0 0 1 186.887 42.67 C 189.011 39.796 192.059 36.248 194.48 34.185 A 19.841 19.841 0 0 1 194.7 34 A 60.45 60.45 0 0 1 192.025 32.486 C 182.299 26.657 172.572 17.339 166.296 7.913 A 64.207 64.207 0 0 1 165.7 7 C 166.3 5.9 166.8 4.7 167.4 3.6 L 156.3 0 C 149.6 14.1 137.1 26.5 123.5 33.8 A 28.338 28.338 0 0 1 124.243 34.86 C 125.979 37.444 128.243 41.49 129.442 44.127 A 22.688 22.688 0 0 1 129.9 45.2 C 131.8 44 133.7 42.7 135.6 41.4 Z M 267.2 76.7 L 267.2 21.5 L 289.3 21.5 L 289.3 9.6 L 233.9 9.6 L 233.9 21.5 L 254.2 21.5 L 254.2 76.7 L 228.5 76.7 L 228.5 88.6 L 293.8 88.6 L 293.8 76.7 L 267.2 76.7 Z M 67.6 65.7 L 76.3 65.7 L 76.3 37.5 L 63.3 37.5 L 63.3 32.9 L 76.9 32.9 L 76.9 25 L 63.3 25 L 63.3 19.2 L 53.9 19.2 L 53.9 25 L 39 25 L 39 32.9 L 53.9 32.9 L 53.9 37.5 L 39.5 37.5 L 39.5 65.7 L 48.8 65.7 A 57.359 57.359 0 0 1 39.252 74.864 C 37.955 75.828 36.651 76.686 35.36 77.411 A 29.543 29.543 0 0 1 35.2 77.5 A 17.308 17.308 0 0 1 36.057 78.191 C 37.829 79.706 39.931 81.989 41.18 83.693 A 17.411 17.411 0 0 1 41.4 84 A 44.819 44.819 0 0 0 44.304 81.693 C 46.759 79.582 49.27 77.025 51.63 74.233 A 74.659 74.659 0 0 0 53.6 71.8 L 53.6 88.5 L 62.8 88.5 L 62.8 71.8 C 66.41 74.836 70.02 78.073 72.47 80.74 A 30.496 30.496 0 0 1 73.9 82.4 L 79.6 76.3 C 77 73.3 72.3 69.3 67.6 65.7 Z M 90.4 5.5 L 50.4 5.5 L 50.4 15.5 L 80.5 15.5 L 80.5 82.8 A 4.911 4.911 0 0 1 80.457 83.495 C 80.309 84.523 79.754 84.816 78.5 84.9 C 77.214 84.9 73.056 84.984 68.899 84.765 A 79.138 79.138 0 0 1 67.8 84.7 C 69.2 87.2 70.6 91.6 70.9 94.3 C 78.1 94.3 83 94.1 86.2 92.4 C 88.842 91.079 89.985 89.008 90.302 85.399 A 28.631 28.631 0 0 0 90.4 82.9 L 90.4 5.5 Z M 24.9 23.4 L 24.9 94.3 L 35.2 94.3 L 35.2 23.4 L 24.9 23.4 Z M 131.8 62 L 122.9 53.9 A 235.793 235.793 0 0 1 120.874 57.889 C 115.892 67.477 110.126 77.065 105.577 83.786 A 149.004 149.004 0 0 1 104.4 85.5 L 114.7 93.5 C 120.6 83.7 126.8 72.4 131.8 62 Z M 204.4 85.4 L 214.4 93.5 A 439.834 439.834 0 0 0 218.95 85.892 C 223.37 78.334 227.789 70.291 231.6 62.789 A 352.127 352.127 0 0 0 232 62 L 223.2 54 A 253.428 253.428 0 0 1 220.346 59.397 C 215.488 68.328 209.995 77.258 205.673 83.569 A 151.72 151.72 0 0 1 204.4 85.4 Z M 23.5 59.5 L 14.7 53.6 A 314.405 314.405 0 0 1 12.337 60.362 C 8.983 69.628 5.172 78.895 2.2 85 L 12.1 90.7 A 396.667 396.667 0 0 0 14.69 84.224 C 17.794 76.265 20.922 67.547 23.5 59.5 Z M 175.1 35.7 L 142.8 35.7 C 149 30.4 154.6 24.1 159.4 17.3 C 163.9 24 169.4 30.4 175.1 35.7 Z M 69.4 47.2 L 65 45.7 C 64.475 48.325 63.261 52.175 62.162 55.039 A 48.488 48.488 0 0 1 61.7 56.2 L 65.7 57.7 C 66.682 55.573 67.664 52.843 68.7 50.113 A 157.637 157.637 0 0 1 69.4 48.3 L 69.4 58.9 L 61.7 58.9 L 61.7 44.2 L 69.4 44.2 L 69.4 47.2 Z M 114.3 3.1 L 106.8 11.2 A 84.814 84.814 0 0 1 109.956 13.13 C 114.95 16.331 120.272 20.401 123.383 23.694 A 24.223 24.223 0 0 1 124.2 24.6 L 132.2 15.5 C 128.4 11.4 120.5 6.3 114.3 3.1 Z M 207.4 29.8 L 200.9 38.6 A 315.677 315.677 0 0 1 204.135 40.296 C 209.68 43.242 216.177 46.908 219.5 49.4 L 226.1 39.5 C 221.7 36.7 212.9 32.4 207.4 29.8 Z M 107.9 30 L 100.9 38.6 A 71.188 71.188 0 0 1 104.123 40.35 C 109.475 43.429 115.214 47.531 118.2 50.6 L 125.5 41.1 A 26.733 26.733 0 0 0 123.751 39.554 C 120.084 36.565 114.523 33.261 109.691 30.863 A 82.937 82.937 0 0 0 107.9 30 Z M 213.7 2.7 L 206.8 11.1 C 211.899 14.231 218.918 18.562 223.134 21.731 A 41.218 41.218 0 0 1 224.5 22.8 L 231.7 13.4 A 51.019 51.019 0 0 0 230.026 12.232 C 225.853 9.431 219.333 5.704 214.552 3.152 A 189.974 189.974 0 0 0 213.7 2.7 Z M 34.1 1.8 L 26.3 7.8 C 30.779 11.563 35.981 17.011 38.885 20.98 A 29.272 29.272 0 0 1 39.8 22.3 L 48.2 15.9 C 45.4 11.6 39.2 5.8 34.1 1.8 Z M 6.4 30.3 L 0 37.6 C 4.991 40.65 11.262 45.237 14.868 48.678 A 30.922 30.922 0 0 1 15.7 49.5 L 22.4 41.3 C 19.367 38.527 13.481 34.553 8.58 31.589 A 123.562 123.562 0 0 0 6.4 30.3 Z M 11.6 4.7 L 4.6 11.4 A 100.868 100.868 0 0 1 7.229 13.376 C 11.33 16.562 15.694 20.417 18.32 23.476 A 26.027 26.027 0 0 1 19 24.3 L 26.3 16.7 A 32.705 32.705 0 0 0 24.525 14.872 C 21.417 11.886 16.879 8.381 12.95 5.632 A 121.851 121.851 0 0 0 11.6 4.7 Z M 46 44.2 L 54.7 44.2 L 54.7 58.9 L 46 58.9 L 46 44.2 Z M 49.5 57.8 L 54.3 56.3 C 53.823 53.631 52.711 49.6 51.569 46.284 A 67.908 67.908 0 0 0 51.4 45.8 L 46.8 47 C 47.9 50.4 49 54.9 49.5 57.8 Z" vector-effect="non-scaling-stroke"/></g></svg>