<svg width="193.1" height="93.2" viewBox="0 0 193.1 93.2" xmlns="http://www.w3.org/2000/svg"><g id="svgGroup" stroke-linecap="round" fill-rule="evenodd" font-size="9pt" stroke="#000" stroke-width="0.25mm" fill="black" style="stroke:#000;stroke-width:0.25mm;fill:black"><path d="M 93.3 52.3 L 93.3 41.6 L 70 41.6 L 70 27.9 L 88.9 27.9 L 88.9 17.2 L 70 17.2 L 70 0 L 58.6 0 L 58.6 17.2 L 51.6 17.2 C 52.4 13.7 53 10.2 53.6 6.6 L 42.8 4.7 A 135.62 135.62 0 0 1 42.696 5.457 C 41.167 16.307 38.284 27.157 33.3 33.9 A 60.054 60.054 0 0 1 34.212 34.402 C 36.572 35.726 39.943 37.792 41.879 39.303 A 14.129 14.129 0 0 1 42.6 39.9 A 43.558 43.558 0 0 0 45.506 34.728 A 83.744 83.744 0 0 0 48.4 27.9 L 58.6 27.9 L 58.6 41.6 L 35.1 41.6 L 35.1 52.3 L 54.1 52.3 C 48.4 63.6 39.1 74.3 28.9 80 A 26.935 26.935 0 0 1 30 81.025 C 32.158 83.14 34.813 86.277 36.405 88.566 A 26.802 26.802 0 0 1 36.7 89 C 45.1 83.5 52.8 74.8 58.6 64.8 L 58.6 93.2 L 70 93.2 L 70 64.3 A 104.902 104.902 0 0 0 79.171 78.994 C 81.745 82.394 84.444 85.394 87.2 87.8 C 89.2 85 93.1 80.8 95.6 78.6 A 58.252 58.252 0 0 1 86.281 70.045 A 84.409 84.409 0 0 1 74.2 52.3 L 93.3 52.3 Z M 166.5 75.4 L 166.5 20.2 L 188.6 20.2 L 188.6 8.3 L 133.2 8.3 L 133.2 20.2 L 153.5 20.2 L 153.5 75.4 L 127.8 75.4 L 127.8 87.3 L 193.1 87.3 L 193.1 75.4 L 166.5 75.4 Z M 23.4 66.2 L 23.4 45.2 L 33.2 45.2 L 33.2 34.3 L 23.4 34.3 L 23.4 16.7 L 34.9 16.7 L 34.9 5.6 L 0.5 5.6 L 0.5 16.7 L 12.1 16.7 L 12.1 34.3 L 1.2 34.3 L 1.2 45.2 L 12.1 45.2 L 12.1 69.2 C 8.171 70.073 4.547 70.946 1.362 71.686 A 399.303 399.303 0 0 1 0 72 L 2.2 83.4 C 11.7 80.7 24 77.4 35.3 74.2 L 33.8 63.4 C 30.3 64.4 26.9 65.3 23.4 66.2 Z M 103.7 84.1 L 113.7 92.2 A 439.834 439.834 0 0 0 118.25 84.592 C 122.67 77.034 127.089 68.991 130.9 61.489 A 352.127 352.127 0 0 0 131.3 60.7 L 122.5 52.7 A 253.428 253.428 0 0 1 119.646 58.097 C 114.788 67.028 109.295 75.958 104.973 82.269 A 151.72 151.72 0 0 1 103.7 84.1 Z M 106.7 28.5 L 100.2 37.3 A 315.677 315.677 0 0 1 103.435 38.996 C 108.98 41.942 115.477 45.608 118.8 48.1 L 125.4 38.2 C 121 35.4 112.2 31.1 106.7 28.5 Z M 113 1.4 L 106.1 9.8 C 111.199 12.931 118.218 17.262 122.434 20.431 A 41.218 41.218 0 0 1 123.8 21.5 L 131 12.1 A 51.019 51.019 0 0 0 129.326 10.932 C 125.153 8.131 118.633 4.404 113.852 1.852 A 189.974 189.974 0 0 0 113 1.4 Z" vector-effect="non-scaling-stroke"/></g></svg>