<svg width="194.1" height="93.3" viewBox="0 0 194.1 93.3" xmlns="http://www.w3.org/2000/svg"><g id="svgGroup" stroke-linecap="round" fill-rule="evenodd" font-size="9pt" stroke="#000" stroke-width="0.25mm" fill="black" style="stroke:#000;stroke-width:0.25mm;fill:black"><path d="M 194.1 4.8 L 129.1 4.8 L 129.1 10.6 A 66.339 66.339 0 0 0 126.893 9.183 C 122.347 6.375 115.652 2.776 110.9 0.4 L 104.1 8.8 C 109.9 12.3 118.3 17.3 122.3 20.2 L 129.1 11.1 L 129.1 16.4 L 174.9 16.4 L 174.9 77.1 C 174.9 79.114 174.146 79.871 172.177 80.061 A 10.595 10.595 0 0 1 171.6 80.1 C 169.2 80.1 160.3 80.2 152.4 79.7 C 154.099 82.815 156.155 88.069 156.884 91.592 A 18.001 18.001 0 0 1 157 92.2 A 462.56 462.56 0 0 0 164.431 92.157 C 169.209 92.078 173.103 91.861 176.269 91.266 A 21.357 21.357 0 0 0 180.4 90.1 C 185.1 88.1 186.8 84.6 186.8 77.3 L 186.8 16.4 L 194.1 16.4 L 194.1 4.8 Z M 24.3 32 L 1.3 32 L 1.3 43.5 L 12.3 43.5 L 12.3 70.5 C 8.4 72.5 4.2 76.1 0 80.8 L 8.6 93.3 C 11.6 87.3 15.3 80.2 18 80.2 A 3.671 3.671 0 0 1 19.402 80.555 C 21.574 81.489 24.695 84.086 28.4 86.1 A 36.635 36.635 0 0 0 40.456 90.336 C 45.182 91.191 50.648 91.5 57.3 91.5 A 328.109 328.109 0 0 0 62.266 91.458 C 72.494 91.302 85.366 90.742 91.6 90.4 A 15.522 15.522 0 0 1 91.761 88.652 C 92.28 85.031 93.922 80.113 95.2 77.3 C 86.747 78.449 74.254 79.328 64.075 79.607 A 231.693 231.693 0 0 1 57.8 79.7 A 150.674 150.674 0 0 1 46.963 79.387 C 43.435 79.129 40.19 78.676 37.235 77.899 A 27.579 27.579 0 0 1 30.1 75 A 94.58 94.58 0 0 1 27.676 73.472 C 26.417 72.653 25.3 71.888 24.3 71.2 L 24.3 32 Z M 68.5 63.2 L 68.5 31.8 A 145.53 145.53 0 0 0 84.804 17.222 C 87.311 14.644 89.667 12.067 91.8 9.6 L 83.6 3.4 L 81.1 4 L 31.8 4 L 31.8 15.5 L 70.9 15.5 C 66.798 19.875 62.032 24.499 57.51 27.783 A 45.346 45.346 0 0 1 56.2 28.7 L 56.2 62.9 C 56.2 64.384 55.613 64.791 53.761 64.8 A 13.111 13.111 0 0 1 53.7 64.8 A 566.696 566.696 0 0 1 53.082 64.8 C 50.876 64.797 45.483 64.775 40.947 64.551 A 115.124 115.124 0 0 1 40 64.5 C 41.233 67.049 42.602 70.612 43.383 73.633 A 26.37 26.37 0 0 1 43.8 75.5 C 51.88 75.597 57.876 75.41 62.247 73.924 A 17.779 17.779 0 0 0 62.6 73.8 A 10.478 10.478 0 0 0 65.316 72.449 C 67.355 70.977 68.217 68.793 68.439 65.307 A 33.299 33.299 0 0 0 68.5 63.2 Z M 166.3 63.9 L 166.3 27 L 133.3 27 L 133.3 70.5 L 144 70.5 L 144 63.9 L 166.3 63.9 Z M 130 59.7 L 121.2 51.7 A 241.65 241.65 0 0 1 118.626 56.616 C 113.675 65.819 108.013 75.023 103.531 81.46 A 134.637 134.637 0 0 1 102.3 83.2 L 112.4 91.2 A 350.855 350.855 0 0 0 116.586 84.246 C 121.254 76.292 125.923 67.7 130 59.7 Z M 13.4 0 L 4.4 6.1 A 300.948 300.948 0 0 1 6.599 8.647 C 10.524 13.248 14.888 18.665 17.408 22.749 A 31.975 31.975 0 0 1 18.2 24.1 L 27.8 17.1 A 44.464 44.464 0 0 0 25.948 14.45 C 22.591 9.96 17.449 4.297 13.4 0 Z M 106.1 27.6 L 99.6 36.4 C 104.941 39.249 112.343 43.286 116.796 46.184 A 47.376 47.376 0 0 1 118.3 47.2 L 124.9 37.3 C 120.5 34.6 111.6 30.3 106.1 27.6 Z M 155.4 37.6 L 155.4 53.3 L 144 53.3 L 144 37.6 L 155.4 37.6 Z" vector-effect="non-scaling-stroke"/></g></svg>