<svg width="195" height="93.5" viewBox="0 0 195 93.5" xmlns="http://www.w3.org/2000/svg"><g id="svgGroup" stroke-linecap="round" fill-rule="evenodd" font-size="9pt" stroke="#000" stroke-width="0.25mm" fill="black" style="stroke:#000;stroke-width:0.25mm;fill:black"><path d="M 18.7 10.9 L 3 10.9 L 3 21.7 L 14.8 21.7 A 77.183 77.183 0 0 1 7.323 34.89 A 49.439 49.439 0 0 1 0 43.1 A 26.921 26.921 0 0 1 0.798 44.103 C 2.608 46.482 4.975 50.194 6.27 52.64 A 22.142 22.142 0 0 1 6.8 53.7 A 96.857 96.857 0 0 0 10.625 49.664 A 81.622 81.622 0 0 0 11.9 48.2 L 11.9 92.3 L 22.8 92.3 L 22.8 71.5 L 39.4 71.5 L 39.4 80 A 4.001 4.001 0 0 1 39.362 80.593 C 39.236 81.426 38.777 81.7 37.7 81.7 A 347.972 347.972 0 0 1 37.185 81.7 C 35.745 81.698 32.71 81.681 29.674 81.551 A 110.988 110.988 0 0 1 28.6 81.5 A 28.887 28.887 0 0 1 29.533 83.507 C 30.681 86.221 31.684 89.529 32 91.9 A 136.93 136.93 0 0 0 36.455 91.842 C 39.851 91.73 42.588 91.417 44.831 90.597 A 11.936 11.936 0 0 0 46.2 90 C 49.017 88.464 50.085 86.126 50.337 82.365 A 30.944 30.944 0 0 0 50.4 80.3 L 50.4 29.3 L 23.5 29.3 C 24.7 26.8 25.8 24.3 26.8 21.7 L 53.9 21.7 L 53.9 10.9 L 30.4 10.9 A 1229.683 1229.683 0 0 0 31.588 6.6 A 154.492 154.492 0 0 0 32.7 2.3 L 21.6 0 A 109.44 109.44 0 0 1 19.505 8.213 A 224.631 224.631 0 0 1 18.7 10.9 Z M 86.4 5.2 L 84.7 5.7 L 57.2 5.7 L 57.2 93.5 L 68.4 93.5 L 68.4 16.9 L 80.1 16.9 A 1458.95 1458.95 0 0 1 78.318 22.513 C 76.235 29.021 73.829 36.267 71.6 41.8 A 44.977 44.977 0 0 1 76.055 46.873 C 79.154 51.024 80.737 54.896 81.403 58.324 A 21.356 21.356 0 0 1 81.8 62.4 A 20.568 20.568 0 0 1 81.687 64.674 C 81.445 66.838 80.788 68.342 79.5 69.1 A 5.782 5.782 0 0 1 76.22 70.09 A 12.716 12.716 0 0 1 75.7 70.1 C 74.736 70.169 73.487 70.19 72.084 70.132 A 40.802 40.802 0 0 1 70.1 70 A 21.731 21.731 0 0 1 71.195 72.551 C 72.2 75.332 72.844 78.528 72.98 80.871 A 16.658 16.658 0 0 1 73 81.3 A 37.425 37.425 0 0 0 74.161 81.368 C 75.817 81.439 77.472 81.403 78.969 81.284 A 31.109 31.109 0 0 0 80.7 81.1 A 21.549 21.549 0 0 0 84.378 80.262 A 10.771 10.771 0 0 0 87.6 78.6 C 91.4 76 93 71.2 93 63.8 A 31.348 31.348 0 0 0 91.999 55.666 C 90.948 51.701 88.897 47.411 85.08 42.836 A 48.881 48.881 0 0 0 82.9 40.4 A 202.887 202.887 0 0 0 84.928 35.887 C 88.158 28.472 91.513 19.775 94.404 11.946 A 803.134 803.134 0 0 0 94.9 10.6 L 86.4 5.2 Z M 168.4 75.5 L 168.4 20.3 L 190.5 20.3 L 190.5 8.4 L 135.1 8.4 L 135.1 20.3 L 155.4 20.3 L 155.4 75.5 L 129.7 75.5 L 129.7 87.4 L 195 87.4 L 195 75.5 L 168.4 75.5 Z M 105.6 84.2 L 115.6 92.3 A 439.834 439.834 0 0 0 120.15 84.692 C 124.57 77.134 128.989 69.091 132.8 61.589 A 352.127 352.127 0 0 0 133.2 60.8 L 124.4 52.8 A 253.428 253.428 0 0 1 121.546 58.197 C 116.688 67.128 111.195 76.058 106.873 82.369 A 151.72 151.72 0 0 1 105.6 84.2 Z M 108.6 28.6 L 102.1 37.4 A 315.677 315.677 0 0 1 105.335 39.096 C 110.88 42.042 117.377 45.708 120.7 48.2 L 127.3 38.3 C 122.9 35.5 114.1 31.2 108.6 28.6 Z M 114.9 1.5 L 108 9.9 C 113.099 13.031 120.118 17.362 124.334 20.531 A 41.218 41.218 0 0 1 125.7 21.6 L 132.9 12.2 A 51.019 51.019 0 0 0 131.226 11.032 C 127.053 8.231 120.533 4.504 115.752 1.952 A 189.974 189.974 0 0 0 114.9 1.5 Z M 22.8 61.5 L 22.8 55.3 L 39.4 55.3 L 39.4 61.5 L 22.8 61.5 Z M 39.4 45.3 L 22.8 45.3 L 22.8 39.6 L 39.4 39.6 L 39.4 45.3 Z" vector-effect="non-scaling-stroke"/></g></svg>