<svg width="191.2" height="92.1" viewBox="0 0 191.2 92.1" xmlns="http://www.w3.org/2000/svg"><g id="svgGroup" stroke-linecap="round" fill-rule="evenodd" font-size="9pt" stroke="#000" stroke-width="0.25mm" fill="black" style="stroke:#000;stroke-width:0.25mm;fill:black"><path d="M 89.4 49 L 89.4 37.1 L 29.6 37.1 L 29.6 0 L 17 0 L 17 37.1 L 0 37.1 L 0 49 L 17 49 L 17 74.3 C 17 78.7 14.4 80.9 12.2 82 C 13.9 84.2 16.1 89.2 16.8 92.1 C 19.9 90.2 24.6 88.7 52.1 82 C 51.591 79.71 51.154 75.621 51.033 72.297 A 47.034 47.034 0 0 1 51 70.6 L 29.6 75.2 L 29.6 49 L 42.1 49 A 76.821 76.821 0 0 0 54.842 71.133 C 61.37 78.826 69.596 84.676 80.033 88.595 A 74.833 74.833 0 0 0 83.5 89.8 A 26.981 26.981 0 0 1 84.408 88.103 C 86.285 84.858 89.279 80.884 91.629 78.566 A 21.482 21.482 0 0 1 91.8 78.4 A 62.337 62.337 0 0 1 74.02 70.975 A 52.475 52.475 0 0 1 54.4 49 L 89.4 49 Z M 164.6 75.1 L 164.6 19.9 L 186.7 19.9 L 186.7 8 L 131.3 8 L 131.3 19.9 L 151.6 19.9 L 151.6 75.1 L 125.9 75.1 L 125.9 87 L 191.2 87 L 191.2 75.1 L 164.6 75.1 Z M 81.8 6.7 L 69.7 1.5 C 61.6 10.4 47.5 18.5 34.2 23.2 C 37 25.5 41.7 30.5 43.9 33.1 C 56.8 27.2 72.1 17.3 81.8 6.7 Z M 101.8 83.8 L 111.8 91.9 A 439.834 439.834 0 0 0 116.35 84.292 C 120.77 76.734 125.189 68.691 129 61.189 A 352.127 352.127 0 0 0 129.4 60.4 L 120.6 52.4 A 253.428 253.428 0 0 1 117.746 57.797 C 112.888 66.728 107.395 75.658 103.073 81.969 A 151.72 151.72 0 0 1 101.8 83.8 Z M 104.8 28.2 L 98.3 37 A 315.677 315.677 0 0 1 101.535 38.696 C 107.08 41.642 113.577 45.308 116.9 47.8 L 123.5 37.9 C 119.1 35.1 110.3 30.8 104.8 28.2 Z M 111.1 1.1 L 104.2 9.5 C 109.299 12.631 116.318 16.962 120.534 20.131 A 41.218 41.218 0 0 1 121.9 21.2 L 129.1 11.8 A 51.019 51.019 0 0 0 127.426 10.632 C 123.253 7.831 116.733 4.104 111.952 1.552 A 189.974 189.974 0 0 0 111.1 1.1 Z" vector-effect="non-scaling-stroke"/></g></svg>