<svg width="293.8" height="94.3" viewBox="0 0 293.8 94.3" xmlns="http://www.w3.org/2000/svg"><g id="svgGroup" stroke-linecap="round" fill-rule="evenodd" font-size="9pt" stroke="#000" stroke-width="0.25mm" fill="black" style="stroke:#000;stroke-width:0.25mm;fill:black"><path d="M 192.4 60.2 L 192.4 50.1 L 109.5 50.1 A 54.871 54.871 0 0 0 124.006 41.114 C 129.657 36.146 133.877 29.982 136.894 22.308 A 62.62 62.62 0 0 0 137.5 20.7 L 147 20.7 L 147 33 C 141.3 34.7 135.5 36.4 129.7 37.8 C 130.984 39.973 132.56 43.316 133.081 45.71 A 10.58 10.58 0 0 1 133.1 45.8 C 138.1 44.6 143.1 43.3 148.1 42 C 149.596 45.345 152.952 46.752 159.53 47.042 A 65.507 65.507 0 0 0 162.4 47.1 L 178.6 47.1 A 25.557 25.557 0 0 0 183.112 46.757 C 188.208 45.835 190.514 42.92 191.58 36.463 A 44.24 44.24 0 0 0 191.9 34.1 A 43.044 43.044 0 0 1 190.137 33.647 C 187.389 32.881 184.155 31.711 182.113 30.408 A 11.787 11.787 0 0 1 182.1 30.4 A 69.418 69.418 0 0 1 181.898 32.676 C 181.381 37.452 180.462 38.6 177.4 38.6 L 163.9 38.6 A 37.984 37.984 0 0 1 162.698 38.584 C 161.394 38.542 160.525 38.413 159.9 38.1 A 137.357 137.357 0 0 0 174.91 31.648 A 78.76 78.76 0 0 0 183.2 26.8 L 177.4 20.7 L 191.5 20.7 L 191.5 10.7 L 175.3 10.7 L 177.5 8.2 A 41.627 41.627 0 0 0 175.58 7.02 C 172.229 5.069 167.535 2.788 163.503 0.999 A 145.283 145.283 0 0 0 161.2 0 L 154.9 6.4 C 157.4 7.6 160.4 9.2 163.2 10.7 L 140.3 10.7 A 121.524 121.524 0 0 0 141.625 2.775 A 120.557 120.557 0 0 0 141.8 1.4 L 130.4 0.8 A 74.862 74.862 0 0 1 129.728 6.396 A 68.35 68.35 0 0 1 128.9 10.7 L 102.9 10.7 L 102.9 20.7 L 125.7 20.7 A 36.547 36.547 0 0 1 107.667 38.953 A 52.959 52.959 0 0 1 102 41.3 A 20.591 20.591 0 0 1 102.872 42.147 C 104.81 44.133 107.274 47.261 108.52 49.402 A 12.614 12.614 0 0 1 108.9 50.1 L 102 50.1 L 102 60.2 L 126.7 60.2 C 119.6 67 110.1 72.6 100.4 76.4 C 102.7 78.4 106.4 83.1 108 85.5 A 99.183 99.183 0 0 0 112.622 83.137 A 103.252 103.252 0 0 0 121.8 77.5 L 121.8 94.3 L 133.3 94.3 L 133.3 91.3 L 172.9 91.3 L 172.9 94.2 L 184.9 94.2 L 184.9 66.3 L 135.6 66.3 A 63.891 63.891 0 0 0 140.079 61.371 A 49.37 49.37 0 0 0 141 60.2 L 192.4 60.2 Z M 93.4 78.5 L 80.7 78.5 L 80.7 68.6 L 90.7 68.6 L 90.7 58.6 L 80.7 58.6 L 80.7 49 L 90.8 49 L 90.8 39 L 80.7 39 L 80.7 29.7 L 92.3 29.7 L 92.3 19 L 76.9 19 L 82.3 16.7 A 41.737 41.737 0 0 0 81.538 13.732 C 80.428 9.949 78.656 5.477 76.7 1.8 L 68 5.4 A 69.112 69.112 0 0 1 69.581 9.11 C 70.89 12.435 72.053 16.053 72.7 19 L 61.2 19 C 63.3 13.9 65.2 8.7 66.6 3.5 L 56.3 0.8 C 52.9 13.7 47 26.8 40.1 35.1 C 40.619 35.705 41.287 36.46 41.975 37.299 A 42.603 42.603 0 0 1 42.3 37.7 L 38.8 37.7 L 38.8 16.4 L 44.5 16.4 L 44.5 5.4 L 3.9 5.4 L 3.9 16.4 L 28.4 16.4 L 28.4 37.7 L 16.1 37.7 A 659.444 659.444 0 0 0 17.214 30.894 C 17.822 27.066 18.4 23.238 18.9 19.8 L 8.9 19 C 7.85 27.488 6.111 38.272 4.487 46.061 A 152.453 152.453 0 0 1 3.8 49.2 L 19.5 49.2 A 107.536 107.536 0 0 1 19.191 49.894 C 15.752 57.537 11.244 65.181 6.351 71.258 A 54.403 54.403 0 0 1 0 78 A 20.826 20.826 0 0 1 1.168 78.965 C 3.38 80.919 6.033 83.879 7.69 85.998 A 36.921 36.921 0 0 1 8 86.4 A 75.282 75.282 0 0 0 16.382 76.204 A 118.165 118.165 0 0 0 28.4 53.9 L 28.4 79 A 3.843 3.843 0 0 1 28.347 79.683 C 28.197 80.508 27.713 80.854 26.718 80.896 A 5.187 5.187 0 0 1 26.5 80.9 A 942.236 942.236 0 0 1 25.803 80.9 C 24.439 80.899 22.065 80.893 19.369 80.859 A 385.578 385.578 0 0 1 15.9 80.8 A 42.697 42.697 0 0 1 16.181 81.488 C 17.351 84.42 18.6 88.423 18.955 91.204 A 14.661 14.661 0 0 1 19 91.6 A 119.158 119.158 0 0 0 23.952 91.511 C 27.339 91.369 30.119 91.034 32.308 90.354 A 12.122 12.122 0 0 0 34.4 89.5 A 7.232 7.232 0 0 0 38.235 84.622 C 38.641 83.114 38.8 81.271 38.8 79 L 38.8 49.2 L 45.4 49.2 L 45.4 42.2 C 45.859 42.856 46.233 43.426 46.548 43.939 A 26.982 26.982 0 0 1 47 44.7 A 46.109 46.109 0 0 0 49.724 41.102 A 57.733 57.733 0 0 0 50.2 40.4 L 50.2 94.2 L 60.9 94.2 L 60.9 89.3 L 93.4 89.3 L 93.4 78.5 Z M 267.2 76.2 L 267.2 21 L 289.3 21 L 289.3 9.1 L 233.9 9.1 L 233.9 21 L 254.2 21 L 254.2 76.2 L 228.5 76.2 L 228.5 88.1 L 293.8 88.1 L 293.8 76.2 L 267.2 76.2 Z M 204.4 84.9 L 214.4 93 A 439.834 439.834 0 0 0 218.95 85.392 C 223.37 77.834 227.789 69.791 231.6 62.289 A 352.127 352.127 0 0 0 232 61.5 L 223.2 53.5 A 253.428 253.428 0 0 1 220.346 58.897 C 215.488 67.828 209.995 76.758 205.673 83.069 A 151.72 151.72 0 0 1 204.4 84.9 Z M 172.9 82.3 L 133.3 82.3 L 133.3 75.1 L 172.9 75.1 L 172.9 82.3 Z M 207.4 29.3 L 200.9 38.1 A 315.677 315.677 0 0 1 204.135 39.796 C 209.68 42.742 216.177 46.408 219.5 48.9 L 226.1 39 C 221.7 36.2 212.9 31.9 207.4 29.3 Z M 213.7 2.2 L 206.8 10.6 C 211.899 13.731 218.918 18.062 223.134 21.231 A 41.218 41.218 0 0 1 224.5 22.3 L 231.7 12.9 A 51.019 51.019 0 0 0 230.026 11.732 C 225.853 8.931 219.333 5.204 214.552 2.652 A 189.974 189.974 0 0 0 213.7 2.2 Z M 158.8 20.7 L 173.7 20.7 A 64.048 64.048 0 0 1 166.304 25.028 A 128.387 128.387 0 0 1 158.8 28.5 L 158.8 20.7 Z M 60.9 68.6 L 70.5 68.6 L 70.5 78.5 L 60.9 78.5 L 60.9 68.6 Z M 70.5 58.6 L 60.9 58.6 L 60.9 49 L 70.5 49 L 70.5 58.6 Z M 70.5 39 L 60.9 39 L 60.9 29.7 L 70.5 29.7 L 70.5 39 Z" vector-effect="non-scaling-stroke"/></g></svg>