<svg width="191.8" height="93.7" viewBox="0 0 191.8 93.7" xmlns="http://www.w3.org/2000/svg"><g id="svgGroup" stroke-linecap="round" fill-rule="evenodd" font-size="9pt" stroke="#000" stroke-width="0.25mm" fill="black" style="stroke:#000;stroke-width:0.25mm;fill:black"><path d="M 90.2 34.6 L 90.2 23.8 L 66.9 23.8 L 66.9 17.8 L 83.4 17.8 L 83.4 7.3 L 66.9 7.3 L 66.9 0 L 54.6 0 L 54.6 7.3 L 35.9 7.3 L 35.9 0 L 23.8 0 L 23.8 7.3 L 7.4 7.3 L 7.4 17.8 L 23.8 17.8 L 23.8 23.8 L 0.3 23.8 L 0.3 34.6 L 39 34.6 L 39 39.6 L 10.2 39.6 L 10.2 75 L 27.8 75 C 21.495 78.63 10.626 82.717 1.297 84.993 A 95.085 95.085 0 0 1 0 85.3 C 2.7 87.6 6.3 91.3 8.3 93.7 A 119.791 119.791 0 0 0 14.678 91.874 C 23.46 89.106 32.999 85.121 39.4 81.2 L 30.6 75 L 57.8 75 L 52.3 81.2 C 61.698 84.594 71.475 88.745 78.204 91.94 A 153.758 153.758 0 0 1 81 93.3 L 89.5 85.3 A 174.127 174.127 0 0 0 86.003 83.813 C 79.492 81.122 70.715 77.85 62.5 75 L 81.1 75 L 81.1 39.6 L 51.3 39.6 L 51.3 34.6 L 90.2 34.6 Z M 191.8 5.8 L 126.8 5.8 L 126.8 11.6 A 66.339 66.339 0 0 0 124.593 10.183 C 120.047 7.375 113.352 3.776 108.6 1.4 L 101.8 9.8 C 107.6 13.3 116 18.3 120 21.2 L 126.8 12.1 L 126.8 17.4 L 172.6 17.4 L 172.6 78.1 C 172.6 80.114 171.846 80.871 169.877 81.061 A 10.595 10.595 0 0 1 169.3 81.1 C 166.9 81.1 158 81.2 150.1 80.7 C 151.799 83.815 153.855 89.069 154.584 92.592 A 18.001 18.001 0 0 1 154.7 93.2 A 462.56 462.56 0 0 0 162.131 93.157 C 166.909 93.078 170.803 92.861 173.969 92.266 A 21.357 21.357 0 0 0 178.1 91.1 C 182.8 89.1 184.5 85.6 184.5 78.3 L 184.5 17.4 L 191.8 17.4 L 191.8 5.8 Z M 164 64.9 L 164 28 L 131 28 L 131 71.5 L 141.7 71.5 L 141.7 64.9 L 164 64.9 Z M 127.7 60.7 L 118.9 52.7 A 241.65 241.65 0 0 1 116.326 57.616 C 111.375 66.819 105.713 76.023 101.231 82.46 A 134.637 134.637 0 0 1 100 84.2 L 110.1 92.2 A 350.855 350.855 0 0 0 114.286 85.246 C 118.954 77.292 123.623 68.7 127.7 60.7 Z M 103.8 28.6 L 97.3 37.4 C 102.641 40.249 110.043 44.286 114.496 47.184 A 47.376 47.376 0 0 1 116 48.2 L 122.6 38.3 C 118.2 35.6 109.3 31.3 103.8 28.6 Z M 153.1 38.6 L 153.1 54.3 L 141.7 54.3 L 141.7 38.6 L 153.1 38.6 Z M 35.9 17.8 L 54.6 17.8 L 54.6 23.8 L 35.9 23.8 L 35.9 17.8 Z M 69.1 66.8 L 51.3 66.8 L 51.3 61 L 69.1 61 L 69.1 66.8 Z M 69.1 47.8 L 69.1 53.3 L 51.3 53.3 L 51.3 47.8 L 69.1 47.8 Z M 21.7 61 L 39 61 L 39 66.8 L 21.7 66.8 L 21.7 61 Z M 21.7 47.8 L 39 47.8 L 39 53.3 L 21.7 53.3 L 21.7 47.8 Z" vector-effect="non-scaling-stroke"/></g></svg>