<svg width="292" height="94" viewBox="0 0 292 94" xmlns="http://www.w3.org/2000/svg"><g id="svgGroup" stroke-linecap="round" fill-rule="evenodd" font-size="9pt" stroke="#000" stroke-width="0.25mm" fill="black" style="stroke:#000;stroke-width:0.25mm;fill:black"><path d="M 159.2 75.5 L 159.2 75.1 C 170.3 65.9 179.8 54.7 187 41.7 L 175.9 37.1 C 171.7 45.4 165.9 53 159.2 59.7 L 159.2 33.4 L 190.4 33.4 L 190.4 22.3 L 140.2 22.3 C 140.9 15.5 141.4 8.2 141.7 0.5 L 129.2 0 A 347.256 347.256 0 0 1 128.566 14.295 A 233.885 233.885 0 0 1 127.9 22.3 L 100.4 22.3 L 100.4 33.4 L 126.5 33.4 A 102.936 102.936 0 0 1 121.559 53.637 A 52.71 52.71 0 0 1 98.2 82.4 C 100.976 84.78 105.719 89.912 107.359 92.533 A 10.654 10.654 0 0 1 107.4 92.6 A 68.5 68.5 0 0 0 134.75 52.727 A 143.438 143.438 0 0 0 138.8 33.4 L 147.1 33.4 L 147.1 69.9 C 140.9 74.5 134.2 78.3 127.1 81.4 C 130.008 83.921 133.292 87.663 135.13 90.531 A 22.15 22.15 0 0 1 135.3 90.8 C 139.6 88.6 143.9 86.1 147.9 83.6 A 10.229 10.229 0 0 0 149.881 87.71 C 151.56 89.71 154.159 90.782 158.069 91.195 A 42.419 42.419 0 0 0 162.5 91.4 L 177.8 91.4 A 21.143 21.143 0 0 0 183.105 90.827 C 187.988 89.553 190.429 86.021 191.765 78.862 A 66.028 66.028 0 0 0 192.5 73.6 C 189.1 72.9 184.2 70.9 181.7 69 A 136.85 136.85 0 0 1 181.465 72.217 C 180.878 78.945 179.938 80.4 176.7 80.4 L 164.1 80.4 C 159.9 80.4 159.2 79.8 159.2 75.5 Z M 90.1 60.9 L 51.3 60.9 L 51.3 55.8 L 82.2 55.8 L 82.2 46.5 L 51.3 46.5 L 51.3 41.7 L 80.8 41.7 L 80.8 3.4 L 10.1 3.4 L 10.1 41.7 L 39.4 41.7 L 39.4 46.5 L 8.6 46.5 L 8.6 55.8 L 39.4 55.8 L 39.4 60.9 L 0.8 60.9 L 0.8 71.3 L 90.1 71.3 L 90.1 60.9 Z M 265.4 75.6 L 265.4 20.4 L 287.5 20.4 L 287.5 8.5 L 232.1 8.5 L 232.1 20.4 L 252.4 20.4 L 252.4 75.6 L 226.7 75.6 L 226.7 87.5 L 292 87.5 L 292 75.6 L 265.4 75.6 Z M 202.6 84.3 L 212.6 92.4 A 439.834 439.834 0 0 0 217.15 84.792 C 221.57 77.234 225.989 69.191 229.8 61.689 A 352.127 352.127 0 0 0 230.2 60.9 L 221.4 52.9 A 253.428 253.428 0 0 1 218.546 58.297 C 213.688 67.228 208.195 76.158 203.873 82.469 A 151.72 151.72 0 0 1 202.6 84.3 Z M 21.4 32.1 L 21.4 13 L 39.4 13 L 39.4 32.1 L 21.4 32.1 Z M 68.8 32.1 L 51.3 32.1 L 51.3 13 L 68.8 13 L 68.8 32.1 Z M 79.4 93.9 L 91.3 89.7 A 41.259 41.259 0 0 0 89.819 87.071 C 86.997 82.425 82.567 76.633 78.9 72.3 L 67.7 76 C 72.1 81.5 77.3 89.1 79.4 93.9 Z M 170.8 22.3 L 179.1 15.1 A 55.892 55.892 0 0 0 176.843 13.083 C 172.436 9.331 165.872 4.56 161 1.2 L 153.1 7.5 A 498.14 498.14 0 0 1 156.189 9.874 C 161.522 14.008 167.55 18.883 170.8 22.3 Z M 22.2 75.3 L 10.5 72.4 C 8.2 78.6 4.2 85.3 0 89 L 11.4 94 A 44.591 44.591 0 0 0 16.369 87.5 C 18.112 84.762 19.665 81.779 20.9 78.795 A 49.592 49.592 0 0 0 22.2 75.3 Z M 205.6 28.7 L 199.1 37.5 A 315.677 315.677 0 0 1 202.335 39.196 C 207.88 42.142 214.377 45.808 217.7 48.3 L 224.3 38.4 C 219.9 35.6 211.1 31.3 205.6 28.7 Z M 211.9 1.6 L 205 10 C 210.099 13.131 217.118 17.462 221.334 20.631 A 41.218 41.218 0 0 1 222.7 21.7 L 229.9 12.3 A 51.019 51.019 0 0 0 228.226 11.132 C 224.053 8.331 217.533 4.604 212.752 2.052 A 189.974 189.974 0 0 0 211.9 1.6 Z M 52.7 93 L 64.7 90.3 A 40.727 40.727 0 0 0 64.113 87.735 C 63.135 83.963 61.474 79.178 59.813 75.258 A 75.711 75.711 0 0 0 59.4 74.3 L 48.1 76.5 A 101.19 101.19 0 0 1 49.51 80.501 C 50.973 84.938 52.243 89.724 52.7 93 Z M 29.4 93 L 41.1 91.5 C 41.1 87.593 40.408 81.35 39.426 76.231 A 76.568 76.568 0 0 0 39.2 75.1 L 28.1 76.2 A 74.688 74.688 0 0 1 28.561 79.431 C 29.09 83.776 29.354 88.561 29.394 92.072 A 80.551 80.551 0 0 1 29.4 93 Z M 67.6 17.3 L 58.8 14.2 A 69.025 69.025 0 0 1 58.101 16.532 C 56.951 20.15 55.317 24.436 53.787 27.617 A 42.607 42.607 0 0 1 53.3 28.6 L 60.6 31.4 A 71.612 71.612 0 0 0 62.533 27.815 C 64 24.927 65.569 21.547 67.184 18.167 A 427.605 427.605 0 0 1 67.6 17.3 Z M 28.8 31 L 36.6 28 A 24.649 24.649 0 0 0 35.967 25.434 C 34.934 21.982 33.075 17.861 31.026 14.543 A 38.887 38.887 0 0 0 31 14.5 L 23.7 17.1 C 25.898 21.129 27.843 26.331 28.617 30.021 A 21.797 21.797 0 0 1 28.8 31 Z" vector-effect="non-scaling-stroke"/></g></svg>