<svg width="195.8" height="93.7" viewBox="0 0 195.8 93.7" xmlns="http://www.w3.org/2000/svg"><g id="svgGroup" stroke-linecap="round" fill-rule="evenodd" font-size="9pt" stroke="#000" stroke-width="0.25mm" fill="black" style="stroke:#000;stroke-width:0.25mm;fill:black"><path d="M 185.7 32.9 L 179.9 38.7 L 151.7 38.7 A 307.902 307.902 0 0 0 156.141 35.264 C 165.225 28.112 176.495 18.593 182.3 13.3 A 20.856 20.856 0 0 0 184.977 12.95 C 186.36 12.666 187.499 12.229 188.208 11.6 A 2.79 2.79 0 0 0 188.5 11.3 L 177 1.8 L 171.7 7.6 L 136.7 7.6 L 137.6 10.4 L 170.2 10.4 C 163.989 16.356 153.941 24.629 145.476 31.152 A 362.403 362.403 0 0 1 141.2 34.4 A 22.642 22.642 0 0 0 139.63 34.656 C 137.847 35.008 136.065 35.554 134.813 36.068 A 14.587 14.587 0 0 0 134.5 36.2 L 143.6 45.3 L 148.9 41.5 L 152.8 41.5 A 68.974 68.974 0 0 1 127.407 76.072 A 64.535 64.535 0 0 1 126.2 76.9 L 127.2 78.3 A 79.893 79.893 0 0 0 145.371 66.944 A 62.59 62.59 0 0 0 163.6 41.5 L 166.8 41.5 C 162.2 63.1 150.5 80 128.6 90.8 L 129.5 92.1 C 157.8 82.2 172 65.3 177.9 41.5 L 180.9 41.5 A 477.171 477.171 0 0 1 180.211 53.32 C 179.164 67.838 177.635 76.546 175.458 79.649 A 4.146 4.146 0 0 1 174.8 80.4 A 7.368 7.368 0 0 1 174.432 80.677 C 173.588 81.27 172.8 81.5 171.4 81.5 C 169.51 81.5 164.704 81.176 161.137 80.893 A 299.667 299.667 0 0 1 160 80.8 L 159.9 82.2 C 163.7 83 166.8 84.3 168.2 85.9 A 6.294 6.294 0 0 1 169.451 88.318 C 169.859 89.712 170 91.4 170 93.3 C 175.3 93.3 179.3 92.2 182.6 89.3 A 14.68 14.68 0 0 0 186.296 83.754 C 189.206 76.81 190.793 64.469 191.68 43.763 A 616.45 616.45 0 0 0 191.7 43.3 C 193.332 43.077 194.414 42.635 195.15 42.094 A 4.027 4.027 0 0 0 195.8 41.5 L 185.7 32.9 Z M 45.5 42.7 L 41.5 42.7 L 41.5 32 C 43.6 31.7 44.3 30.9 44.5 29.6 L 31.3 28.4 L 31.3 42.7 L 18.1 42.7 A 148.137 148.137 0 0 0 18.198 37.202 A 629.724 629.724 0 0 0 18.2 35.5 L 18.2 26.5 L 46.4 26.5 L 46.4 31.6 L 48.2 31.6 C 51.205 31.6 55.785 30.108 56.656 29.312 A 0.402 0.402 0 0 0 56.8 29.1 L 56.8 10.4 C 58.7 10 60 9.2 60.5 8.5 L 50.3 0.8 L 45.4 6 L 19.9 6 L 7.6 1.5 L 7.6 35.5 C 7.6 52.192 7.523 70.813 2.419 86.55 A 65.349 65.349 0 0 1 0 92.9 L 1.3 93.7 C 10.786 84.354 14.94 72.44 16.779 60.527 A 129.062 129.062 0 0 0 18.1 45.6 L 31.3 45.6 L 31.3 59.3 L 28.7 59.3 L 17.5 55 L 17.5 93.6 L 19.2 93.6 A 21.857 21.857 0 0 0 21.553 93.476 C 25.291 93.071 27.533 91.773 27.691 91.076 A 0.344 0.344 0 0 0 27.7 91 L 27.7 85.7 L 45.3 85.7 L 45.3 92.3 L 47.2 92.3 A 22.139 22.139 0 0 0 49.532 92.178 C 53.56 91.752 56 90.324 56 89.9 L 56 62.9 A 13.824 13.824 0 0 0 57.116 62.653 C 57.963 62.425 58.571 62.148 59.028 61.811 A 3.189 3.189 0 0 0 59.8 61 L 50 53.6 L 45 59.3 L 41.5 59.3 L 41.5 45.6 L 58.5 45.6 C 59.389 45.6 60.117 45.398 60.606 44.97 A 1.934 1.934 0 0 0 61.2 44 A 79.057 79.057 0 0 0 59.94 42.803 C 56.212 39.334 51.1 35.1 51.1 35.1 L 45.5 42.7 Z M 124.9 59.3 L 124.9 30.7 L 138.5 30.7 A 4.381 4.381 0 0 0 139.455 30.605 C 140.305 30.414 140.865 29.934 141.094 29.122 A 2.621 2.621 0 0 0 141.1 29.1 A 62.447 62.447 0 0 0 140.146 27.924 C 137.361 24.568 133.395 20.347 132.63 19.538 A 81.508 81.508 0 0 0 132.5 19.4 L 127.4 27.9 L 124.9 27.9 L 124.9 5.5 C 127.6 5.1 128.3 4 128.6 2.6 L 113.4 1.3 L 113.4 27.9 L 101 27.9 L 101.7 30.7 L 113.4 30.7 L 113.4 62.1 A 1170.104 1170.104 0 0 1 109.417 63.017 C 106.836 63.607 104.593 64.11 102.786 64.513 A 2609.693 2609.693 0 0 1 100.6 65 L 107.1 78.5 A 3.971 3.971 0 0 0 108.648 77.411 A 4.641 4.641 0 0 0 109.6 75.8 A 419.044 419.044 0 0 0 119.273 70.033 C 128.138 64.581 134.625 60.1 139.2 56.8 L 138.9 55.7 A 326.776 326.776 0 0 1 135.363 56.656 A 573.038 573.038 0 0 1 124.9 59.3 Z M 80 0 L 80 79.5 A 3.688 3.688 0 0 1 79.943 80.195 C 79.774 81.07 79.2 81.4 77.9 81.4 C 76.032 81.4 67.445 80.789 66.321 80.709 A 266.357 266.357 0 0 1 66.2 80.7 L 66.2 82.1 C 69.267 82.622 71.226 83.314 72.635 84.205 A 8.497 8.497 0 0 1 74.5 85.8 A 7.398 7.398 0 0 1 75.8 88.316 C 76.249 89.737 76.474 91.466 76.594 93.503 A 51.672 51.672 0 0 1 76.6 93.6 C 87.423 92.561 90.075 89.198 90.591 83.316 A 33.568 33.568 0 0 0 90.7 80.4 L 90.7 4.3 A 9.531 9.531 0 0 0 91.852 4.049 C 92.862 3.755 93.495 3.326 93.87 2.749 A 2.966 2.966 0 0 0 94.3 1.5 L 80 0 Z M 76.4 13.1 L 63 11.8 L 63 70.8 L 64.8 70.8 A 11.841 11.841 0 0 0 66.177 70.716 C 69.489 70.327 72.8 68.69 72.8 67.9 L 72.8 15.9 A 8.994 8.994 0 0 0 73.963 15.649 C 74.904 15.373 75.501 14.975 75.874 14.476 A 2.926 2.926 0 0 0 76.4 13.1 Z M 46.4 8.9 L 46.4 23.6 L 18.2 23.6 L 18.2 8.9 L 46.4 8.9 Z M 45.3 62.2 L 45.3 82.8 L 27.7 82.8 L 27.7 62.2 L 45.3 62.2 Z" vector-effect="non-scaling-stroke"/></g></svg>