<svg width="85" height="87.553" viewBox="0 0 85 87.553" xmlns="http://www.w3.org/2000/svg"><g id="svgGroup" stroke-linecap="round" fill-rule="evenodd" font-size="9pt" stroke="#000" stroke-width="0.25mm" fill="black" style="stroke:#000;stroke-width:0.25mm;fill:black"><path d="M 85 5.7 L 67.8 0 A 73.945 73.945 0 0 1 66.512 3.943 C 63.146 13.479 56.004 29.974 50.747 41.069 A 358.976 358.976 0 0 1 50.4 41.8 A 61.604 61.604 0 0 1 59.854 53.772 C 65.846 63.427 70.033 74.694 71.666 83.115 A 49.427 49.427 0 0 1 72.1 85.7 A 11.063 11.063 0 0 0 72.487 85.991 C 84.415 94.56 96.344 65.771 55.262 42.277 A 111.048 111.048 0 0 0 53.7 41.4 A 271.351 271.351 0 0 0 57.358 37.102 C 65.895 26.878 76.7 12.791 80.7 7.4 C 82.312 7.669 83.427 7.396 84.168 6.794 A 3.013 3.013 0 0 0 85 5.7 Z M 57.4 5.2 L 40.2 0 C 38.2 8.2 30.6 28.7 25 41.5 A 61.259 61.259 0 0 1 33.312 53.162 C 39.374 63.937 43.215 76.607 44 85.1 C 55.301 94.647 68.025 67.276 31.229 43.02 A 102.003 102.003 0 0 0 28.2 41.1 A 205.393 205.393 0 0 0 31.509 36.953 C 38.528 27.943 47.058 15.834 51.574 9.411 A 2641.551 2641.551 0 0 1 53.2 7.1 A 7.7 7.7 0 0 0 53.671 7.147 C 55.68 7.284 56.842 6.501 57.4 5.2 Z M 31.2 5 L 14 0 A 78.739 78.739 0 0 1 13 3.996 C 10.336 13.717 4.496 30.561 0 41.8 A 60.446 60.446 0 0 1 7.323 52.572 C 12.766 62.571 16.377 74.365 17.448 83 A 46.509 46.509 0 0 1 17.7 85.6 C 28.948 95.185 41.727 67.652 5.601 43.048 A 99.255 99.255 0 0 0 3.1 41.4 A 253.563 253.563 0 0 0 6.313 37.107 C 13.016 27.971 21.22 15.821 25.541 9.277 A 441.42 441.42 0 0 0 27.1 6.9 C 29.4 7.3 30.7 6.5 31.2 5 Z" vector-effect="non-scaling-stroke"/></g></svg>