<svg width="87.8" height="89" viewBox="0 0 87.8 89" xmlns="http://www.w3.org/2000/svg"><g id="svgGroup" stroke-linecap="round" fill-rule="evenodd" font-size="9pt" stroke="#000" stroke-width="0.25mm" fill="black" style="stroke:#000;stroke-width:0.25mm;fill:black"><path d="M 13.8 0.2 L 13.8 35 A 218.465 218.465 0 0 1 13.744 40.034 C 13.342 57.499 10.582 74.963 0 88.1 L 1 89 C 19.155 77.941 24.401 58.899 25.268 39.857 A 135.666 135.666 0 0 0 25.4 35 L 25.4 4.5 A 8.781 8.781 0 0 0 26.533 4.256 C 27.48 3.978 28.063 3.575 28.436 3.067 A 3.479 3.479 0 0 0 29 1.7 L 13.8 0.2 Z M 72.4 0 L 72.4 88.6 L 74.6 88.6 A 12.214 12.214 0 0 0 76.034 88.512 C 79.862 88.059 83.689 85.961 84.153 84.816 A 0.578 0.578 0 0 0 84.2 84.6 L 84.2 4.4 C 85.933 4.133 86.866 3.556 87.355 2.786 A 3.202 3.202 0 0 0 87.8 1.5 L 72.4 0 Z M 42.2 5 L 42.2 78 L 44.3 78 A 13.107 13.107 0 0 0 45.323 77.959 C 49.267 77.65 53.21 75.669 53.658 74.59 A 0.499 0.499 0 0 0 53.7 74.4 L 53.7 9.3 C 56.5 8.9 57.2 7.9 57.4 6.5 L 42.2 5 Z" vector-effect="non-scaling-stroke"/></g></svg>