<svg width="95.5" height="93.7" viewBox="0 0 95.5 93.7" xmlns="http://www.w3.org/2000/svg"><g id="svgGroup" stroke-linecap="round" fill-rule="evenodd" font-size="9pt" stroke="#000" stroke-width="0.25mm" fill="black" style="stroke:#000;stroke-width:0.25mm;fill:black"><path d="M 53.8 14.6 L 53.8 4.3 A 9.84 9.84 0 0 0 54.885 4.076 C 55.787 3.83 56.364 3.487 56.746 3.047 A 3.12 3.12 0 0 0 57.4 1.6 L 41.8 0 L 41.8 78.5 A 2.662 2.662 0 0 1 41.701 79.277 C 41.467 80.041 40.792 80.4 39.4 80.4 A 21.722 21.722 0 0 1 38.898 80.393 C 35.574 80.314 24.6 79.6 24.6 79.6 L 24.6 81 A 45.872 45.872 0 0 1 27.478 81.583 C 29.597 82.09 31.14 82.67 32.36 83.351 A 10.847 10.847 0 0 1 34.8 85.2 A 9.017 9.017 0 0 1 36.593 88.408 C 36.87 89.23 37.086 90.141 37.261 91.153 A 37.782 37.782 0 0 1 37.6 93.7 A 48.145 48.145 0 0 0 42.926 92.985 C 50.916 91.397 53.164 87.948 53.672 82.522 A 34.82 34.82 0 0 0 53.8 79.3 L 53.8 21.7 C 58.7 54.4 68.9 70.9 84.8 83.9 A 17.658 17.658 0 0 1 88.146 77.456 A 11.733 11.733 0 0 1 95 73.3 L 95.5 72.2 A 94.292 94.292 0 0 1 94.406 71.659 C 83.468 66.159 72.529 57.948 64.4 44.4 C 73.176 39.359 81.864 33.01 87.943 27.957 A 131.582 131.582 0 0 0 89.2 26.9 A 10.422 10.422 0 0 0 89.707 26.972 C 91.745 27.21 92.644 26.627 93.2 25.7 L 79.4 17 A 92.724 92.724 0 0 1 77.63 20.254 C 74.026 26.601 68.406 35.142 63 41.9 C 59.387 35.125 56.426 27.208 54.413 17.706 A 116.037 116.037 0 0 1 53.8 14.6 Z M 31 23.1 L 25 29.3 L 2.4 29.3 L 3.3 32.2 L 25.7 32.2 A 120.297 120.297 0 0 1 24.737 37.235 C 21.109 54.23 13.562 71.225 0.658 82.532 A 56.278 56.278 0 0 1 0 83.1 L 0.9 84.2 A 66.8 66.8 0 0 0 19.701 69.952 A 79.087 79.087 0 0 0 37.7 33.9 A 16.148 16.148 0 0 0 38.817 33.764 C 39.711 33.619 40.345 33.405 40.833 33.071 A 2.974 2.974 0 0 0 41.6 32.3 L 31 23.1 Z" vector-effect="non-scaling-stroke"/></g></svg>