<svg width="96" height="92.701" viewBox="0 0 96 92.701" xmlns="http://www.w3.org/2000/svg"><g id="svgGroup" stroke-linecap="round" fill-rule="evenodd" font-size="9pt" stroke="#000" stroke-width="0.25mm" fill="black" style="stroke:#000;stroke-width:0.25mm;fill:black"><path d="M 81.9 3.3 L 75.7 9.8 L 31.1 9.8 L 31.9 12.7 L 40.3 12.7 A 176.693 176.693 0 0 0 44.106 33.584 C 45.968 41.061 48.278 47.845 51.028 54.024 A 99.219 99.219 0 0 0 55.8 63.4 A 99.275 99.275 0 0 1 27.721 89.628 A 100.154 100.154 0 0 1 25.1 91.2 L 26.1 92.4 A 109.692 109.692 0 0 0 43.18 84.14 C 49.79 80.176 55.506 75.694 60.4 70.8 C 66.6 79.3 74 86.3 82.6 92.2 A 15.936 15.936 0 0 1 87.357 86.354 A 13.357 13.357 0 0 1 95.4 83.7 L 96 82.6 C 85.5 77.7 75.8 71.2 67.5 62.8 C 78.4 48.9 84.5 32.3 88.3 15.1 C 90.8 14.8 91.9 14.4 92.7 13.3 L 81.9 3.3 Z M 7.6 62.4 L 3 62.4 L 3 64.4 C 5.2 64.6 6.8 65 8.3 66 C 10.6 67.6 11.1 76.9 9.2 87.4 A 9.313 9.313 0 0 0 9.822 89.37 C 10.835 91.609 12.564 92.559 14.293 92.685 A 5.579 5.579 0 0 0 14.7 92.7 C 18.771 92.7 21.762 90.255 22.639 86.462 A 10.535 10.535 0 0 0 22.9 84.3 A 29.013 29.013 0 0 0 22.926 83.348 C 22.994 77.215 21.023 73.777 19.881 70.338 A 13.909 13.909 0 0 1 19.1 66.4 C 19 63.8 19.7 60.2 20.6 56.8 A 83.46 83.46 0 0 1 21.271 54.214 C 23.487 46.092 29.354 26.869 32.8 16 L 31.1 15.5 C 12.8 56.5 12.8 56.5 10.6 60.3 C 9.569 62.269 9.153 62.392 7.869 62.399 A 45.619 45.619 0 0 1 7.6 62.4 Z M 42.2 12.7 L 76.4 12.7 C 73.5 27.8 68.6 42.4 60.9 55.3 A 90.719 90.719 0 0 1 48.369 33.679 A 108.272 108.272 0 0 1 42.2 12.7 Z M 9.1 0 L 8.3 0.7 A 43.895 43.895 0 0 1 9.732 2.287 C 13.065 6.162 16.565 11.522 17.7 16.5 C 28.555 23.471 37.227 2.873 9.45 0.035 A 55.306 55.306 0 0 0 9.1 0 Z M 0.8 22.8 L 0 23.4 A 43.984 43.984 0 0 1 1.409 24.877 C 4.728 28.52 8.163 33.475 9.3 38.2 A 9.396 9.396 0 0 0 11.047 39.07 C 20.513 42.559 26.265 24.925 1.504 22.854 A 52.487 52.487 0 0 0 0.8 22.8 Z" vector-effect="non-scaling-stroke"/></g></svg>