<svg width="96.5" height="91.501" viewBox="0 0 96.5 91.501" xmlns="http://www.w3.org/2000/svg"><g id="svgGroup" stroke-linecap="round" fill-rule="evenodd" font-size="9pt" stroke="#000" stroke-width="0.25mm" fill="black" style="stroke:#000;stroke-width:0.25mm;fill:black"><path d="M 77.6 81.7 L 65.9 81.7 L 65.9 12.6 L 90.5 12.6 A 5.155 5.155 0 0 0 91.662 12.479 C 92.555 12.271 93.184 11.791 93.4 11 C 89.415 7.287 83.052 2.015 81.886 1.054 A 135.193 135.193 0 0 0 81.7 0.9 L 75.2 9.8 L 30.6 9.8 L 31.4 12.6 L 53.7 12.6 L 53.7 81.7 L 26.1 81.7 L 26.9 84.5 L 93.6 84.5 A 4.651 4.651 0 0 0 94.986 84.306 C 95.739 84.069 96.307 83.609 96.5 82.9 A 138.977 138.977 0 0 0 94.938 81.497 C 90.365 77.447 84.3 72.5 84.3 72.5 L 77.6 81.7 Z M 7.8 61.3 L 3 61.3 L 3 63.2 C 4.792 63.363 6.318 63.725 7.579 64.34 A 7.995 7.995 0 0 1 8.4 64.8 A 3.118 3.118 0 0 1 9.406 66.129 C 10.73 69.011 10.968 75.545 9.956 83.184 A 83.665 83.665 0 0 1 9.5 86.2 A 9.771 9.771 0 0 0 10.151 88.238 C 11.202 90.547 12.988 91.5 14.9 91.5 A 9.113 9.113 0 0 0 19.495 90.339 C 21.458 89.205 22.835 87.298 23.367 84.863 A 10.709 10.709 0 0 0 23.6 83 C 23.8 74.2 19.7 70.7 19.6 65.4 C 19.517 63.233 20.058 60.372 20.878 57.511 A 52.769 52.769 0 0 1 21.4 55.8 A 70.971 70.971 0 0 1 22.179 53.292 C 24.744 45.433 31.537 26.799 35.6 16.2 L 34.1 15.7 C 13.4 55.4 13.4 55.4 10.9 59.3 C 9.86 61.19 9.357 61.294 8.038 61.3 A 55.789 55.789 0 0 1 7.8 61.3 Z M 9.2 0 L 8.4 0.7 A 50.395 50.395 0 0 1 9.935 2.395 C 13.263 6.24 16.816 11.457 18.2 16.3 A 9.98 9.98 0 0 0 20.046 17.195 C 30.024 20.767 35.885 2.429 9.954 0.064 A 55.377 55.377 0 0 0 9.2 0 Z M 0.8 22.3 L 0 22.9 C 3.68 26.202 7.805 31.642 9.519 36.613 A 18.195 18.195 0 0 1 9.8 37.5 A 9.264 9.264 0 0 0 11.475 38.276 C 21.03 41.545 26.526 23.7 1.559 22.336 A 53.054 53.054 0 0 0 0.8 22.3 Z" vector-effect="non-scaling-stroke"/></g></svg>