<svg width="95.4" height="92.5" viewBox="0 0 95.4 92.5" xmlns="http://www.w3.org/2000/svg"><g id="svgGroup" stroke-linecap="round" fill-rule="evenodd" font-size="9pt" stroke="#000" stroke-width="0.25mm" fill="black" style="stroke:#000;stroke-width:0.25mm;fill:black"><path d="M 76.9 9 L 28.1 9 L 28.9 11.9 L 73.5 11.9 L 73.5 77.3 C 73.5 78.8 72.9 79.5 71.1 79.5 C 68.3 79.5 55 78.7 55 78.7 L 55 80 A 45.342 45.342 0 0 1 58.011 80.533 C 62.118 81.416 64.177 82.623 65.9 84.1 A 7.343 7.343 0 0 1 67.762 86.901 C 68.386 88.456 68.727 90.361 68.9 92.5 A 39.588 39.588 0 0 0 74.159 91.806 C 82.747 90.015 84.701 85.523 84.966 79.554 A 37.348 37.348 0 0 0 85 77.9 L 85 11.9 L 92.6 11.9 A 5.092 5.092 0 0 0 93.628 11.805 C 93.998 11.728 94.319 11.605 94.585 11.432 A 1.899 1.899 0 0 0 95.4 10.3 C 91.413 6.494 84.962 1.128 83.787 0.154 A 117.292 117.292 0 0 0 83.6 0 L 76.9 9 Z M 5.9 62.7 L 1.4 62.7 L 1.4 64.6 A 15.092 15.092 0 0 1 3.401 64.917 C 4.351 65.139 5.19 65.454 5.962 65.88 A 9.192 9.192 0 0 1 6.5 66.2 A 2.857 2.857 0 0 1 7.488 67.479 C 8.769 70.284 8.899 76.732 7.877 84.147 A 85.698 85.698 0 0 1 7.4 87.2 A 8.852 8.852 0 0 0 8.076 89.21 C 8.434 89.944 8.873 90.531 9.368 90.988 A 4.969 4.969 0 0 0 12.8 92.3 A 8.94 8.94 0 0 0 17.374 91.125 C 19.209 90.043 20.508 88.259 20.993 85.957 A 9.974 9.974 0 0 0 21.2 84.1 C 21.426 77.395 19.211 73.811 17.977 70.228 A 13.34 13.34 0 0 1 17.2 66.6 A 21.113 21.113 0 0 1 17.353 64.219 C 17.602 62.055 18.125 59.6 18.7 57.3 A 72.552 72.552 0 0 1 19.326 54.855 C 21.176 48.01 25.766 32.906 28.983 22.486 A 2360.62 2360.62 0 0 1 30 19.2 L 28.4 18.8 A 133326.236 133326.236 0 0 1 24.387 27.609 C 10.985 57.026 10.824 57.31 8.9 60.7 C 7.868 62.576 7.452 62.692 6.166 62.7 A 48.494 48.494 0 0 1 5.9 62.7 Z M 64.6 61.8 L 64.6 31.7 C 66.3 31.4 67.5 30.7 68 30 L 58.1 22.4 L 53.2 27.6 L 44.7 27.6 L 33.2 23.1 L 33.2 68.6 L 35 68.6 C 39.807 68.6 42.904 66.549 43.346 65.686 A 0.424 0.424 0 0 0 43.4 65.5 L 43.4 56.1 L 54.1 56.1 L 54.1 64.4 L 55.9 64.4 C 59.212 64.4 64.231 62.503 64.582 61.85 A 0.162 0.162 0 0 0 64.6 61.8 Z M 43.4 53.3 L 43.4 30.4 L 54.1 30.4 L 54.1 53.3 L 43.4 53.3 Z M 7 0.7 L 6.2 1.4 A 39.258 39.258 0 0 1 7.762 2.924 C 11.2 6.466 14.914 11.508 16.3 16.1 A 9.431 9.431 0 0 0 18.045 16.851 C 27.892 19.914 33.002 1.456 7 0.7 Z M 0.8 22.6 L 0 23.3 A 26.13 26.13 0 0 1 1.002 24.27 C 4.295 27.63 7.592 32.68 8.5 37.4 A 9.198 9.198 0 0 0 10.204 38.29 C 19.461 41.901 25.597 24.623 1.483 22.651 A 50.72 50.72 0 0 0 0.8 22.6 Z" vector-effect="non-scaling-stroke"/></g></svg>