<svg width="96.1" height="94.102" viewBox="0 0 96.1 94.102" xmlns="http://www.w3.org/2000/svg"><g id="svgGroup" stroke-linecap="round" fill-rule="evenodd" font-size="9pt" stroke="#000" stroke-width="0.25mm" fill="black" style="stroke:#000;stroke-width:0.25mm;fill:black"><path d="M 78.6 7 L 72 13.1 L 54.6 13.1 A 116.102 116.102 0 0 0 57.059 8.717 A 48.816 48.816 0 0 0 58.3 6.2 A 7.629 7.629 0 0 0 59.305 6.097 C 60.909 5.814 61.447 5.028 61.7 4.1 L 45.7 0 A 94.045 94.045 0 0 1 43.774 7.103 C 40.382 17.994 34.486 30.85 27 39.8 L 27.9 40.8 C 35.9 36.1 42.9 29.3 48.4 22.2 C 50.8 27.5 53.6 32.4 57.1 36.7 A 97.939 97.939 0 0 1 34.808 53.082 A 109.598 109.598 0 0 1 22.7 58.7 L 23.4 60.1 A 119.311 119.311 0 0 0 33.877 57.203 A 201.911 201.911 0 0 0 37.2 56.1 L 37.2 94.1 L 39.2 94.1 A 23.113 23.113 0 0 0 41.635 93.974 C 45.88 93.524 48.4 91.994 48.4 91.4 L 48.4 86.9 L 71.2 86.9 L 71.2 93.5 L 73.2 93.5 A 25.914 25.914 0 0 0 75.627 93.388 C 80.182 92.959 82.9 91.429 82.9 91 L 82.9 61.6 A 13.071 13.071 0 0 0 83.97 61.353 C 85.361 60.964 86.113 60.431 86.6 59.7 L 76.5 51.9 A 81.863 81.863 0 0 0 83.157 54.602 A 76.774 76.774 0 0 0 88.2 56.2 C 88.876 50.889 91.137 47.63 95.433 45.971 A 14.77 14.77 0 0 1 95.9 45.8 L 96.1 44.6 C 85.7 43.1 76.9 40.6 69.6 37.1 C 75.7 31.5 80.7 25.1 84.6 18.1 A 26.002 26.002 0 0 0 85.763 17.984 C 86.716 17.865 87.39 17.696 87.931 17.406 A 3.479 3.479 0 0 0 89 16.5 L 78.6 7 Z M 6.6 64.5 L 2.1 64.5 L 2.1 66.4 A 12.449 12.449 0 0 1 4.384 66.706 A 8.186 8.186 0 0 1 7.3 68 A 3.072 3.072 0 0 1 8.295 69.305 C 9.596 72.121 9.783 78.462 8.775 85.85 A 82.561 82.561 0 0 1 8.3 88.9 A 9.562 9.562 0 0 0 8.943 90.91 C 9.993 93.207 11.783 94.1 13.7 94.1 C 17.904 94.1 20.93 91.671 21.831 87.824 A 10.751 10.751 0 0 0 22.1 85.8 A 27.909 27.909 0 0 0 22.107 85.166 C 22.107 78.904 19.957 75.396 18.803 71.888 A 12.917 12.917 0 0 1 18.1 68.3 C 18.015 66.1 18.575 63.112 19.234 60.125 A 218.226 218.226 0 0 1 19.6 58.5 A 143.82 143.82 0 0 1 20.348 55.803 C 22.762 47.349 28.89 27.294 32.6 15.9 L 30.9 15.5 A 213253.86 213253.86 0 0 1 26.456 25.481 C 11.785 58.429 11.623 58.738 9.7 62.4 C 8.5 64.4 8.2 64.5 6.6 64.5 Z M 48.4 84 L 48.4 60.8 L 71.2 60.8 L 71.2 84 L 48.4 84 Z M 70.8 57.9 L 49.4 57.9 L 41 54.7 C 49.2 51.4 56.4 47.4 62.7 42.8 A 53.86 53.86 0 0 0 71.114 48.949 A 61.296 61.296 0 0 0 76.3 51.7 L 70.8 57.9 Z M 52.8 16 L 71.9 16 A 69.927 69.927 0 0 1 61.406 31.965 A 71.492 71.492 0 0 1 61.2 32.2 C 56.6 28.8 52.8 24.9 49.8 20.2 C 50.9 18.8 51.9 17.4 52.8 16 Z M 9 2.3 L 8.2 3.1 C 11.893 6.225 16.304 11.682 18.205 16.667 A 18.3 18.3 0 0 1 18.5 17.5 A 9.45 9.45 0 0 0 20.225 18.232 C 30.055 21.246 34.922 2.868 9 2.3 Z M 0.8 23.5 L 0 24.1 C 3.56 27.462 7.413 33.073 8.465 38.226 A 15.454 15.454 0 0 1 8.5 38.4 C 18.611 45.141 27.15 25.742 1.483 23.554 A 50.804 50.804 0 0 0 0.8 23.5 Z" vector-effect="non-scaling-stroke"/></g></svg>