<svg width="94.9" height="94.1" viewBox="0 0 94.9 94.1" xmlns="http://www.w3.org/2000/svg"><g id="svgGroup" stroke-linecap="round" fill-rule="evenodd" font-size="9pt" stroke="#000" stroke-width="0.25mm" fill="black" style="stroke:#000;stroke-width:0.25mm;fill:black"><path d="M 84.7 3.7 L 79.5 9.5 L 70.7 9.5 L 59.8 4.7 L 59.8 24.3 A 169.923 169.923 0 0 0 58.752 23.151 C 56.198 20.375 53.5 17.6 53.5 17.6 L 48.8 25.1 L 47.6 25.1 L 47.6 4.4 C 49.284 4.151 50.229 3.668 50.75 2.976 A 3.051 3.051 0 0 0 51.3 1.5 L 37.1 0 L 37.1 25.1 L 25.8 25.1 L 27.7 17.6 L 26.1 17.2 A 101369.229 101369.229 0 0 1 22.524 26.46 C 10.486 57.626 10.334 57.907 8.5 61.3 C 7.522 63.354 7.118 63.495 5.791 63.5 A 23.23 23.23 0 0 1 5.7 63.5 L 1.4 63.5 L 1.4 65.4 C 3.5 65.6 5.1 66 6.5 67 C 8.608 68.467 9.12 76.572 7.804 86.001 A 84.632 84.632 0 0 1 7.4 88.6 C 8 92.4 10.2 93.8 12.4 93.8 A 7.993 7.993 0 0 0 16.595 92.699 C 18.805 91.357 20.17 88.862 20.3 85.6 C 20.6 76.5 16.7 72.6 16.5 67.4 C 16.5 64.7 17 61.2 17.7 57.8 A 138.162 138.162 0 0 1 18.276 55.218 C 19.686 49.104 22.761 36.687 25.4 26.3 L 25.9 27.9 L 34.8 27.9 A 192.771 192.771 0 0 1 33.224 37.037 C 30.584 50.384 26.402 63.731 20.3 73.9 L 21.5 74.9 C 27.8 68.8 33 61.8 37.1 54.1 L 37.1 94.1 L 39.1 94.1 A 10.277 10.277 0 0 0 40.31 94.026 C 43.955 93.593 47.6 91.37 47.6 90.2 L 47.6 40.7 A 40.645 40.645 0 0 1 50.249 46.45 C 51.301 49.319 52.003 52.347 52.003 55.161 A 16.591 16.591 0 0 1 52 55.5 A 8.586 8.586 0 0 0 52.684 56.117 C 53.852 57.057 55.044 57.467 56.149 57.467 A 4.606 4.606 0 0 0 59.8 55.6 L 59.8 92.9 L 61.5 92.9 A 14.128 14.128 0 0 0 64.754 92.518 C 68.019 91.743 70.3 89.971 70.3 88.9 L 70.3 84.7 L 80.5 84.7 L 80.5 92.3 L 82.2 92.3 A 10.36 10.36 0 0 0 83.745 92.175 C 86.887 91.699 90.283 89.973 91.048 89.065 A 0.669 0.669 0 0 0 91.2 88.8 L 91.2 13.9 A 9.905 9.905 0 0 0 92.745 13.4 C 93.598 13.044 94.292 12.605 94.724 12.186 A 2.777 2.777 0 0 0 94.9 12 L 84.7 3.7 Z M 70.3 81.8 L 70.3 60.1 L 80.5 60.1 L 80.5 81.8 L 70.3 81.8 Z M 80.5 36.1 L 80.5 57.3 L 70.3 57.3 L 70.3 36.1 L 80.5 36.1 Z M 80.5 12.3 L 80.5 33.2 L 70.3 33.2 L 70.3 12.3 L 80.5 12.3 Z M 47.6 27.9 L 59 27.9 C 59.265 27.9 59.529 27.9 59.725 27.831 A 0.64 0.64 0 0 0 59.8 27.8 L 59.8 47.5 C 58.231 44.546 54.871 41.421 49.092 38.912 A 41.006 41.006 0 0 0 47.6 38.3 L 47.6 27.9 Z M 7.2 0.8 L 6.4 1.4 A 47.243 47.243 0 0 1 7.622 2.956 C 10.508 6.791 13.538 11.975 14.5 16.7 A 9.301 9.301 0 0 0 16.278 17.686 C 25.452 21.477 32.007 4.502 7.277 0.811 A 52.805 52.805 0 0 0 7.2 0.8 Z M 0.9 23 L 0 23.7 C 3.25 27.147 6.404 32.729 7.071 37.769 A 15.972 15.972 0 0 1 7.1 38 C 16.6 45.2 25.9 26.5 0.9 23 Z" vector-effect="non-scaling-stroke"/></g></svg>